<svg width="555" height="221" viewBox="0 0 555 221" fill="none" xmlns="http://www.w3.org/2000/svg">
<g clip-path="url(#clip0_404_29466)">
<g filter="url(#filter0_d_404_29466)">
<g clip-path="url(#clip1_404_29466)">
<rect x="164" y="10" width="226" height="194" rx="15" fill="white"/>
<path d="M218.552 33.8577L220.767 38.1409L222.987 33.8577H224.271L221.329 39.2014V42.3889H220.198V39.2014L217.257 33.8577H218.552ZM224.528 39.2893V39.1545C224.528 38.6975 224.595 38.2737 224.728 37.8831C224.86 37.4885 225.052 37.1467 225.302 36.8577C225.552 36.5647 225.854 36.3381 226.21 36.178C226.565 36.0139 226.964 35.9319 227.405 35.9319C227.851 35.9319 228.251 36.0139 228.606 36.178C228.966 36.3381 229.271 36.5647 229.521 36.8577C229.774 37.1467 229.968 37.4885 230.101 37.8831C230.233 38.2737 230.3 38.6975 230.3 39.1545V39.2893C230.3 39.7463 230.233 40.1702 230.101 40.5608C229.968 40.9514 229.774 41.2932 229.521 41.5862C229.271 41.8752 228.968 42.1018 228.612 42.2659C228.261 42.426 227.862 42.5061 227.417 42.5061C226.972 42.5061 226.571 42.426 226.216 42.2659C225.86 42.1018 225.556 41.8752 225.302 41.5862C225.052 41.2932 224.86 40.9514 224.728 40.5608C224.595 40.1702 224.528 39.7463 224.528 39.2893ZM225.612 39.1545V39.2893C225.612 39.6057 225.649 39.9045 225.724 40.1858C225.798 40.4631 225.909 40.7092 226.058 40.9241C226.21 41.1389 226.399 41.3088 226.626 41.4338C226.853 41.5549 227.116 41.6155 227.417 41.6155C227.714 41.6155 227.974 41.5549 228.196 41.4338C228.423 41.3088 228.61 41.1389 228.759 40.9241C228.907 40.7092 229.019 40.4631 229.093 40.1858C229.171 39.9045 229.21 39.6057 229.21 39.2893V39.1545C229.21 38.842 229.171 38.5471 229.093 38.2698C229.019 37.9885 228.905 37.7405 228.753 37.5256C228.604 37.3069 228.417 37.135 228.19 37.01C227.968 36.885 227.706 36.8225 227.405 36.8225C227.108 36.8225 226.847 36.885 226.62 37.01C226.397 37.135 226.21 37.3069 226.058 37.5256C225.909 37.7405 225.798 37.9885 225.724 38.2698C225.649 38.5471 225.612 38.842 225.612 39.1545ZM235.538 40.9241V36.0491H236.628V42.3889H235.591L235.538 40.9241ZM235.743 39.5881L236.194 39.5764C236.194 39.9983 236.149 40.3889 236.06 40.7483C235.974 41.1038 235.833 41.4124 235.638 41.6741C235.442 41.9358 235.187 42.1409 234.87 42.2893C234.554 42.4338 234.169 42.5061 233.716 42.5061C233.407 42.5061 233.124 42.4612 232.866 42.3713C232.612 42.2815 232.394 42.1428 232.21 41.9553C232.026 41.7678 231.884 41.5237 231.782 41.2229C231.685 40.9221 231.636 40.5608 231.636 40.1389V36.0491H232.72V40.1506C232.72 40.4358 232.751 40.6721 232.813 40.8596C232.88 41.0432 232.968 41.1897 233.077 41.2991C233.19 41.4045 233.315 41.4788 233.452 41.5217C233.593 41.5647 233.737 41.5862 233.886 41.5862C234.347 41.5862 234.712 41.4983 234.981 41.3225C235.251 41.1428 235.444 40.9026 235.562 40.6018C235.683 40.2971 235.743 39.9592 235.743 39.5881ZM243.888 42.5061C243.446 42.5061 243.046 42.4319 242.687 42.2834C242.331 42.1311 242.024 41.9182 241.767 41.6448C241.513 41.3713 241.317 41.0471 241.181 40.6721C241.044 40.2971 240.976 39.887 240.976 39.4417V39.1956C240.976 38.6799 241.052 38.2209 241.204 37.8186C241.356 37.4124 241.563 37.0686 241.825 36.7874C242.087 36.5061 242.384 36.2932 242.716 36.1487C243.048 36.0042 243.392 35.9319 243.747 35.9319C244.2 35.9319 244.591 36.01 244.919 36.1663C245.251 36.3225 245.522 36.5413 245.733 36.8225C245.944 37.0999 246.101 37.428 246.202 37.8069C246.304 38.1819 246.354 38.592 246.354 39.0374V39.5237H241.62V38.6389H245.271V38.5569C245.255 38.2756 245.196 38.0022 245.095 37.7366C244.997 37.4709 244.841 37.2522 244.626 37.0803C244.411 36.9084 244.118 36.8225 243.747 36.8225C243.501 36.8225 243.274 36.8752 243.067 36.9807C242.86 37.0823 242.683 37.2346 242.534 37.4377C242.386 37.6409 242.271 37.8889 242.188 38.1819C242.106 38.4749 242.065 38.8127 242.065 39.1956V39.4417C242.065 39.7424 242.106 40.0256 242.188 40.2913C242.274 40.553 242.397 40.7834 242.558 40.9827C242.722 41.1819 242.919 41.3381 243.149 41.4514C243.384 41.5647 243.649 41.6213 243.946 41.6213C244.329 41.6213 244.653 41.5432 244.919 41.387C245.185 41.2307 245.417 41.0217 245.616 40.76L246.272 41.2815C246.136 41.4885 245.962 41.6858 245.751 41.8733C245.54 42.0608 245.28 42.2131 244.972 42.3303C244.667 42.4475 244.306 42.5061 243.888 42.5061ZM251.358 41.3049V38.0413C251.358 37.7913 251.308 37.5745 251.206 37.3909C251.108 37.2034 250.96 37.0588 250.761 36.9573C250.562 36.8557 250.315 36.8049 250.022 36.8049C249.749 36.8049 249.509 36.8518 249.302 36.9456C249.099 37.0393 248.938 37.1624 248.821 37.3147C248.708 37.467 248.651 37.6311 248.651 37.8069H247.567C247.567 37.5803 247.626 37.3557 247.743 37.1331C247.86 36.9104 248.028 36.7092 248.247 36.5295C248.47 36.3459 248.735 36.2014 249.044 36.0959C249.356 35.9866 249.704 35.9319 250.087 35.9319C250.548 35.9319 250.954 36.01 251.306 36.1663C251.661 36.3225 251.938 36.5588 252.138 36.8752C252.341 37.1877 252.442 37.5803 252.442 38.053V41.0061C252.442 41.217 252.46 41.4417 252.495 41.6799C252.534 41.9182 252.591 42.1233 252.665 42.2952V42.3889H251.534C251.479 42.2639 251.437 42.0979 251.405 41.8909C251.374 41.6799 251.358 41.4846 251.358 41.3049ZM251.546 38.5452L251.558 39.3069H250.462C250.153 39.3069 249.878 39.3323 249.636 39.3831C249.394 39.4299 249.19 39.5022 249.026 39.5999C248.862 39.6975 248.737 39.8206 248.651 39.969C248.565 40.1135 248.522 40.2834 248.522 40.4788C248.522 40.678 248.567 40.8596 248.657 41.0237C248.747 41.1877 248.882 41.3186 249.062 41.4163C249.245 41.51 249.47 41.5569 249.735 41.5569C250.067 41.5569 250.36 41.4866 250.614 41.3459C250.868 41.2053 251.069 41.0334 251.218 40.8303C251.37 40.6272 251.452 40.4299 251.464 40.2385L251.927 40.76C251.899 40.9241 251.825 41.1057 251.704 41.3049C251.583 41.5042 251.421 41.6956 251.218 41.8792C251.019 42.0588 250.78 42.2092 250.503 42.3303C250.229 42.4475 249.921 42.5061 249.577 42.5061C249.147 42.5061 248.771 42.4221 248.446 42.2542C248.126 42.0862 247.876 41.8616 247.696 41.5803C247.521 41.2952 247.433 40.9768 247.433 40.6252C247.433 40.2854 247.499 39.9866 247.632 39.7288C247.765 39.467 247.956 39.2502 248.206 39.0784C248.456 38.9026 248.757 38.7698 249.108 38.6799C249.46 38.5901 249.853 38.5452 250.286 38.5452H251.546ZM255.231 37.0452V42.3889H254.147V36.0491H255.202L255.231 37.0452ZM257.212 36.0139L257.206 37.0217C257.116 37.0022 257.03 36.9905 256.948 36.9866C256.87 36.9788 256.78 36.9749 256.679 36.9749C256.429 36.9749 256.208 37.0139 256.017 37.092C255.825 37.1702 255.663 37.2795 255.53 37.4202C255.397 37.5608 255.292 37.7288 255.214 37.9241C255.14 38.1155 255.091 38.3264 255.067 38.5569L254.763 38.7327C254.763 38.3499 254.8 37.9905 254.874 37.6545C254.952 37.3186 255.071 37.0217 255.231 36.7639C255.392 36.5022 255.595 36.2991 255.841 36.1545C256.091 36.0061 256.388 35.9319 256.731 35.9319C256.81 35.9319 256.899 35.9417 257.001 35.9612C257.103 35.9768 257.173 35.9944 257.212 36.0139ZM259.298 37.4026V42.3889H258.214V36.0491H259.239L259.298 37.4026ZM259.04 38.9788L258.589 38.9612C258.593 38.5276 258.657 38.1272 258.782 37.76C258.907 37.3889 259.083 37.0667 259.31 36.7932C259.536 36.5198 259.806 36.3088 260.118 36.1604C260.435 36.0081 260.784 35.9319 261.167 35.9319C261.479 35.9319 261.761 35.9749 262.011 36.0608C262.261 36.1428 262.474 36.2756 262.649 36.4592C262.829 36.6428 262.966 36.8811 263.06 37.1741C263.153 37.4631 263.2 37.8167 263.2 38.2346V42.3889H262.11V38.2229C262.11 37.8909 262.062 37.6252 261.964 37.426C261.866 37.2229 261.724 37.0764 261.536 36.9866C261.349 36.8928 261.118 36.8459 260.845 36.8459C260.575 36.8459 260.329 36.9026 260.106 37.0159C259.888 37.1292 259.698 37.2854 259.538 37.4846C259.382 37.6838 259.259 37.9124 259.169 38.1702C259.083 38.4241 259.04 38.6936 259.04 38.9788ZM267.478 42.5061C267.036 42.5061 266.636 42.4319 266.276 42.2834C265.921 42.1311 265.614 41.9182 265.356 41.6448C265.103 41.3713 264.907 41.0471 264.771 40.6721C264.634 40.2971 264.565 39.887 264.565 39.4417V39.1956C264.565 38.6799 264.642 38.2209 264.794 37.8186C264.946 37.4124 265.153 37.0686 265.415 36.7874C265.677 36.5061 265.974 36.2932 266.306 36.1487C266.638 36.0042 266.981 35.9319 267.337 35.9319C267.79 35.9319 268.181 36.01 268.509 36.1663C268.841 36.3225 269.112 36.5413 269.323 36.8225C269.534 37.0999 269.69 37.428 269.792 37.8069C269.894 38.1819 269.944 38.592 269.944 39.0374V39.5237H265.21V38.6389H268.86V38.5569C268.845 38.2756 268.786 38.0022 268.685 37.7366C268.587 37.4709 268.431 37.2522 268.216 37.0803C268.001 36.9084 267.708 36.8225 267.337 36.8225C267.091 36.8225 266.864 36.8752 266.657 36.9807C266.45 37.0823 266.272 37.2346 266.124 37.4377C265.976 37.6409 265.86 37.8889 265.778 38.1819C265.696 38.4749 265.655 38.8127 265.655 39.1956V39.4417C265.655 39.7424 265.696 40.0256 265.778 40.2913C265.864 40.553 265.987 40.7834 266.147 40.9827C266.312 41.1819 266.509 41.3381 266.739 41.4514C266.974 41.5647 267.239 41.6213 267.536 41.6213C267.919 41.6213 268.243 41.5432 268.509 41.387C268.774 41.2307 269.007 41.0217 269.206 40.76L269.862 41.2815C269.726 41.4885 269.552 41.6858 269.341 41.8733C269.13 42.0608 268.87 42.2131 268.562 42.3303C268.257 42.4475 267.896 42.5061 267.478 42.5061ZM275.206 41.1584V33.3889H276.296V42.3889H275.3L275.206 41.1584ZM270.94 39.2893V39.1663C270.94 38.6819 270.999 38.2424 271.116 37.8479C271.237 37.4495 271.407 37.1077 271.626 36.8225C271.849 36.5374 272.112 36.3186 272.417 36.1663C272.726 36.01 273.069 35.9319 273.448 35.9319C273.847 35.9319 274.194 36.0022 274.491 36.1428C274.792 36.2795 275.046 36.4807 275.253 36.7463C275.464 37.0081 275.63 37.3245 275.751 37.6956C275.872 38.0667 275.956 38.4866 276.003 38.9553V39.4944C275.96 39.9592 275.876 40.3772 275.751 40.7483C275.63 41.1194 275.464 41.4358 275.253 41.6975C275.046 41.9592 274.792 42.1604 274.491 42.301C274.19 42.4377 273.839 42.5061 273.437 42.5061C273.065 42.5061 272.726 42.426 272.417 42.2659C272.112 42.1057 271.849 41.8811 271.626 41.592C271.407 41.303 271.237 40.9631 271.116 40.5725C270.999 40.178 270.94 39.7502 270.94 39.2893ZM272.03 39.1663V39.2893C272.03 39.6057 272.062 39.9026 272.124 40.1799C272.19 40.4573 272.292 40.7014 272.429 40.9124C272.565 41.1233 272.739 41.2893 272.95 41.4104C273.161 41.5276 273.413 41.5862 273.706 41.5862C274.065 41.5862 274.36 41.51 274.591 41.3577C274.825 41.2053 275.013 41.0042 275.153 40.7542C275.294 40.5042 275.403 40.2327 275.481 39.9397V38.5276C275.435 38.3127 275.366 38.1057 275.276 37.9065C275.19 37.7034 275.077 37.5237 274.937 37.3674C274.8 37.2073 274.63 37.0803 274.427 36.9866C274.228 36.8928 273.991 36.8459 273.718 36.8459C273.421 36.8459 273.165 36.9084 272.95 37.0334C272.739 37.1545 272.565 37.3225 272.429 37.5374C272.292 37.7483 272.19 37.9944 272.124 38.2756C272.062 38.553 272.03 38.8499 272.03 39.1663ZM283.614 36.0491V36.8811H280.187V36.0491H283.614ZM281.347 34.5081H282.431V40.8186C282.431 41.0334 282.464 41.1956 282.53 41.3049C282.597 41.4143 282.683 41.4866 282.788 41.5217C282.894 41.5569 283.007 41.5745 283.128 41.5745C283.218 41.5745 283.312 41.5667 283.409 41.551C283.511 41.5315 283.587 41.5159 283.638 41.5042L283.644 42.3889C283.558 42.4163 283.444 42.4417 283.304 42.4651C283.167 42.4924 283.001 42.5061 282.806 42.5061C282.54 42.5061 282.296 42.4534 282.073 42.3479C281.851 42.2424 281.673 42.0667 281.54 41.8206C281.411 41.5706 281.347 41.2346 281.347 40.8127V34.5081ZM285.97 33.3889V42.3889H284.886V33.3889H285.97ZM285.712 38.9788L285.261 38.9612C285.265 38.5276 285.329 38.1272 285.454 37.76C285.579 37.3889 285.755 37.0667 285.981 36.7932C286.208 36.5198 286.478 36.3088 286.79 36.1604C287.106 36.0081 287.456 35.9319 287.839 35.9319C288.151 35.9319 288.433 35.9749 288.683 36.0608C288.933 36.1428 289.146 36.2756 289.321 36.4592C289.501 36.6428 289.638 36.8811 289.731 37.1741C289.825 37.4631 289.872 37.8167 289.872 38.2346V42.3889H288.782V38.2229C288.782 37.8909 288.733 37.6252 288.636 37.426C288.538 37.2229 288.396 37.0764 288.208 36.9866C288.021 36.8928 287.79 36.8459 287.517 36.8459C287.247 36.8459 287.001 36.9026 286.778 37.0159C286.56 37.1292 286.37 37.2854 286.21 37.4846C286.054 37.6838 285.931 37.9124 285.841 38.1702C285.755 38.4241 285.712 38.6936 285.712 38.9788ZM292.673 36.0491V42.3889H291.583V36.0491H292.673ZM291.501 34.3674C291.501 34.1917 291.554 34.0432 291.659 33.9221C291.769 33.801 291.929 33.7405 292.14 33.7405C292.347 33.7405 292.505 33.801 292.614 33.9221C292.728 34.0432 292.784 34.1917 292.784 34.3674C292.784 34.5354 292.728 34.6799 292.614 34.801C292.505 34.9182 292.347 34.9768 292.14 34.9768C291.929 34.9768 291.769 34.9182 291.659 34.801C291.554 34.6799 291.501 34.5354 291.501 34.3674ZM298.104 40.7073C298.104 40.551 298.069 40.4065 297.999 40.2737C297.933 40.137 297.794 40.0139 297.583 39.9045C297.376 39.7913 297.063 39.6936 296.646 39.6116C296.294 39.5374 295.976 39.4495 295.69 39.3479C295.409 39.2463 295.169 39.1233 294.97 38.9788C294.774 38.8342 294.624 38.6643 294.519 38.469C294.413 38.2737 294.36 38.0452 294.36 37.7834C294.36 37.5334 294.415 37.2971 294.524 37.0745C294.638 36.8518 294.796 36.6545 294.999 36.4827C295.206 36.3108 295.454 36.176 295.743 36.0784C296.032 35.9807 296.354 35.9319 296.71 35.9319C297.218 35.9319 297.651 36.0217 298.011 36.2014C298.37 36.3811 298.646 36.6213 298.837 36.9221C299.028 37.219 299.124 37.5491 299.124 37.9124H298.04C298.04 37.7366 297.987 37.5667 297.882 37.4026C297.78 37.2346 297.63 37.0959 297.431 36.9866C297.235 36.8772 296.995 36.8225 296.71 36.8225C296.409 36.8225 296.165 36.8694 295.978 36.9631C295.794 37.053 295.659 37.1682 295.573 37.3088C295.491 37.4495 295.45 37.5979 295.45 37.7542C295.45 37.8713 295.47 37.9768 295.509 38.0706C295.552 38.1604 295.626 38.2444 295.731 38.3225C295.837 38.3967 295.985 38.467 296.177 38.5334C296.368 38.5999 296.612 38.6663 296.909 38.7327C297.429 38.8499 297.856 38.9905 298.192 39.1545C298.528 39.3186 298.778 39.5198 298.942 39.7581C299.106 39.9963 299.188 40.2854 299.188 40.6252C299.188 40.9026 299.13 41.1565 299.013 41.387C298.899 41.6174 298.733 41.8167 298.515 41.9846C298.3 42.1487 298.042 42.2776 297.741 42.3713C297.444 42.4612 297.11 42.5061 296.739 42.5061C296.181 42.5061 295.708 42.4065 295.321 42.2073C294.935 42.0081 294.642 41.7502 294.442 41.4338C294.243 41.1174 294.144 40.7834 294.144 40.4319H295.233C295.249 40.7288 295.335 40.9651 295.491 41.1409C295.647 41.3127 295.839 41.4358 296.065 41.51C296.292 41.5803 296.517 41.6155 296.739 41.6155C297.036 41.6155 297.284 41.5764 297.483 41.4983C297.687 41.4202 297.841 41.3127 297.946 41.176C298.052 41.0393 298.104 40.8831 298.104 40.7073ZM304.667 37.3088V42.3889H303.577V36.0491H304.608L304.667 37.3088ZM304.444 38.9788L303.94 38.9612C303.944 38.5276 304.001 38.1272 304.11 37.76C304.22 37.3889 304.382 37.0667 304.597 36.7932C304.812 36.5198 305.079 36.3088 305.399 36.1604C305.72 36.0081 306.091 35.9319 306.513 35.9319C306.81 35.9319 307.083 35.9749 307.333 36.0608C307.583 36.1428 307.8 36.2737 307.983 36.4534C308.167 36.6331 308.31 36.8635 308.411 37.1448C308.513 37.426 308.563 37.7659 308.563 38.1643V42.3889H307.479V38.217C307.479 37.885 307.423 37.6194 307.31 37.4202C307.2 37.2209 307.044 37.0764 306.841 36.9866C306.638 36.8928 306.399 36.8459 306.126 36.8459C305.806 36.8459 305.538 36.9026 305.323 37.0159C305.108 37.1292 304.937 37.2854 304.808 37.4846C304.679 37.6838 304.585 37.9124 304.526 38.1702C304.472 38.4241 304.444 38.6936 304.444 38.9788ZM308.552 38.3811L307.825 38.6038C307.829 38.2561 307.886 37.9221 307.995 37.6018C308.108 37.2815 308.271 36.9963 308.481 36.7463C308.696 36.4963 308.96 36.2991 309.272 36.1545C309.585 36.0061 309.942 35.9319 310.345 35.9319C310.685 35.9319 310.985 35.9768 311.247 36.0667C311.513 36.1565 311.735 36.2952 311.915 36.4827C312.099 36.6663 312.237 36.9026 312.331 37.1917C312.425 37.4807 312.472 37.8245 312.472 38.2229V42.3889H311.382V38.2112C311.382 37.8557 311.325 37.5803 311.212 37.385C311.103 37.1858 310.946 37.0471 310.743 36.969C310.544 36.887 310.306 36.8459 310.028 36.8459C309.79 36.8459 309.579 36.887 309.396 36.969C309.212 37.051 309.058 37.1643 308.933 37.3088C308.808 37.4495 308.712 37.6116 308.646 37.7952C308.583 37.9788 308.552 38.1741 308.552 38.3811ZM313.825 39.2893V39.1545C313.825 38.6975 313.892 38.2737 314.024 37.8831C314.157 37.4885 314.349 37.1467 314.599 36.8577C314.849 36.5647 315.151 36.3381 315.507 36.178C315.862 36.0139 316.261 35.9319 316.702 35.9319C317.147 35.9319 317.548 36.0139 317.903 36.178C318.263 36.3381 318.567 36.5647 318.817 36.8577C319.071 37.1467 319.265 37.4885 319.397 37.8831C319.53 38.2737 319.597 38.6975 319.597 39.1545V39.2893C319.597 39.7463 319.53 40.1702 319.397 40.5608C319.265 40.9514 319.071 41.2932 318.817 41.5862C318.567 41.8752 318.265 42.1018 317.909 42.2659C317.558 42.426 317.159 42.5061 316.714 42.5061C316.269 42.5061 315.868 42.426 315.513 42.2659C315.157 42.1018 314.853 41.8752 314.599 41.5862C314.349 41.2932 314.157 40.9514 314.024 40.5608C313.892 40.1702 313.825 39.7463 313.825 39.2893ZM314.909 39.1545V39.2893C314.909 39.6057 314.946 39.9045 315.021 40.1858C315.095 40.4631 315.206 40.7092 315.354 40.9241C315.507 41.1389 315.696 41.3088 315.923 41.4338C316.149 41.5549 316.413 41.6155 316.714 41.6155C317.011 41.6155 317.271 41.5549 317.493 41.4338C317.72 41.3088 317.907 41.1389 318.056 40.9241C318.204 40.7092 318.315 40.4631 318.39 40.1858C318.468 39.9045 318.507 39.6057 318.507 39.2893V39.1545C318.507 38.842 318.468 38.5471 318.39 38.2698C318.315 37.9885 318.202 37.7405 318.05 37.5256C317.901 37.3069 317.714 37.135 317.487 37.01C317.265 36.885 317.003 36.8225 316.702 36.8225C316.405 36.8225 316.144 36.885 315.917 37.01C315.694 37.135 315.507 37.3069 315.354 37.5256C315.206 37.7405 315.095 37.9885 315.021 38.2698C314.946 38.5471 314.909 38.842 314.909 39.1545ZM322.04 37.4026V42.3889H320.956V36.0491H321.981L322.04 37.4026ZM321.782 38.9788L321.331 38.9612C321.335 38.5276 321.399 38.1272 321.524 37.76C321.649 37.3889 321.825 37.0667 322.052 36.7932C322.278 36.5198 322.548 36.3088 322.86 36.1604C323.177 36.0081 323.526 35.9319 323.909 35.9319C324.222 35.9319 324.503 35.9749 324.753 36.0608C325.003 36.1428 325.216 36.2756 325.392 36.4592C325.571 36.6428 325.708 36.8811 325.802 37.1741C325.896 37.4631 325.942 37.8167 325.942 38.2346V42.3889H324.853V38.2229C324.853 37.8909 324.804 37.6252 324.706 37.426C324.608 37.2229 324.466 37.0764 324.278 36.9866C324.091 36.8928 323.86 36.8459 323.587 36.8459C323.317 36.8459 323.071 36.9026 322.849 37.0159C322.63 37.1292 322.44 37.2854 322.28 37.4846C322.124 37.6838 322.001 37.9124 321.911 38.1702C321.825 38.4241 321.782 38.6936 321.782 38.9788ZM330.243 36.0491V36.8811H326.815V36.0491H330.243ZM327.976 34.5081H329.06V40.8186C329.06 41.0334 329.093 41.1956 329.159 41.3049C329.226 41.4143 329.312 41.4866 329.417 41.5217C329.522 41.5569 329.636 41.5745 329.757 41.5745C329.847 41.5745 329.94 41.5667 330.038 41.551C330.14 41.5315 330.216 41.5159 330.267 41.5042L330.272 42.3889C330.187 42.4163 330.073 42.4417 329.933 42.4651C329.796 42.4924 329.63 42.5061 329.435 42.5061C329.169 42.5061 328.925 42.4534 328.702 42.3479C328.479 42.2424 328.302 42.0667 328.169 41.8206C328.04 41.5706 327.976 41.2346 327.976 40.8127V34.5081ZM332.599 33.3889V42.3889H331.515V33.3889H332.599ZM332.341 38.9788L331.89 38.9612C331.894 38.5276 331.958 38.1272 332.083 37.76C332.208 37.3889 332.384 37.0667 332.61 36.7932C332.837 36.5198 333.106 36.3088 333.419 36.1604C333.735 36.0081 334.085 35.9319 334.468 35.9319C334.78 35.9319 335.062 35.9749 335.312 36.0608C335.562 36.1428 335.774 36.2756 335.95 36.4592C336.13 36.6428 336.267 36.8811 336.36 37.1741C336.454 37.4631 336.501 37.8167 336.501 38.2346V42.3889H335.411V38.2229C335.411 37.8909 335.362 37.6252 335.265 37.426C335.167 37.2229 335.024 37.0764 334.837 36.9866C334.649 36.8928 334.419 36.8459 334.146 36.8459C333.876 36.8459 333.63 36.9026 333.407 37.0159C333.188 37.1292 332.999 37.2854 332.839 37.4846C332.683 37.6838 332.56 37.9124 332.47 38.1702C332.384 38.4241 332.341 38.6936 332.341 38.9788Z" fill="black"/>
<path d="M246.726 52.1921V55.073H245.202V52.1921H246.726ZM246.54 68.1394V70.7664H245.017V68.1394H246.54ZM247.614 64.9363C247.614 64.5652 247.546 64.2494 247.409 63.989C247.279 63.7286 247.064 63.4975 246.765 63.2957C246.472 63.0938 246.075 62.8985 245.573 62.7097C244.727 62.3842 243.981 62.0391 243.337 61.6746C242.699 61.3035 242.201 60.8445 241.843 60.2976C241.485 59.7442 241.306 59.0444 241.306 58.198C241.306 57.3907 241.498 56.6908 241.882 56.0984C242.266 55.5059 242.797 55.0502 243.474 54.7312C244.157 54.4057 244.951 54.2429 245.856 54.2429C246.547 54.2429 247.172 54.3471 247.731 54.5554C248.291 54.7572 248.773 55.0567 249.177 55.4539C249.58 55.8445 249.89 56.323 250.104 56.8894C250.319 57.4558 250.427 58.1036 250.427 58.8328H247.624C247.624 58.4421 247.582 58.0971 247.497 57.7976C247.412 57.4981 247.289 57.2475 247.126 57.0457C246.97 56.8438 246.781 56.6941 246.56 56.5964C246.338 56.4923 246.094 56.4402 245.827 56.4402C245.43 56.4402 245.104 56.5183 244.851 56.6746C244.597 56.8308 244.411 57.0424 244.294 57.3093C244.183 57.5697 244.128 57.8692 244.128 58.2078C244.128 58.5398 244.187 58.8295 244.304 59.0769C244.427 59.3243 244.639 59.5522 244.938 59.7605C245.238 59.9623 245.648 60.1707 246.169 60.3855C247.015 60.711 247.757 61.0626 248.396 61.4402C249.034 61.8178 249.532 62.28 249.89 62.8269C250.248 63.3738 250.427 64.0704 250.427 64.9167C250.427 65.7566 250.231 66.4727 249.841 67.0652C249.45 67.6511 248.903 68.1003 248.2 68.4128C247.497 68.7188 246.683 68.8718 245.759 68.8718C245.16 68.8718 244.564 68.7937 243.972 68.6375C243.379 68.4747 242.842 68.2143 242.36 67.8562C241.879 67.4981 241.494 67.0229 241.208 66.4304C240.922 65.8315 240.778 65.0958 240.778 64.2234H243.591C243.591 64.6986 243.653 65.0958 243.776 65.4148C243.9 65.7273 244.063 65.9779 244.265 66.1667C244.473 66.349 244.707 66.4792 244.968 66.5574C245.228 66.6355 245.492 66.6746 245.759 66.6746C246.175 66.6746 246.517 66.5997 246.784 66.45C247.058 66.3002 247.263 66.0951 247.399 65.8347C247.543 65.5678 247.614 65.2683 247.614 64.9363ZM259.196 54.4187V68.6667H256.384V57.6609L253.005 58.7351V56.5183L258.894 54.4187H259.196ZM273.552 66.4695V68.6667H263.825V66.7917L268.425 61.8601C268.887 61.3458 269.252 60.8933 269.519 60.5027C269.785 60.1056 269.978 59.7507 270.095 59.4382C270.218 59.1192 270.28 58.8165 270.28 58.53C270.28 58.1003 270.209 57.7325 270.065 57.4265C269.922 57.114 269.711 56.8731 269.431 56.7039C269.157 56.5346 268.819 56.45 268.415 56.45C267.985 56.45 267.614 56.5541 267.302 56.7625C266.996 56.9708 266.761 57.2605 266.599 57.6316C266.442 58.0027 266.364 58.4226 266.364 58.8914H263.542C263.542 58.045 263.744 57.2703 264.147 56.5671C264.551 55.8575 265.121 55.2944 265.856 54.8777C266.592 54.4545 267.465 54.2429 268.474 54.2429C269.47 54.2429 270.31 54.4057 270.993 54.7312C271.683 55.0502 272.204 55.5125 272.556 56.1179C272.914 56.7169 273.093 57.433 273.093 58.2664C273.093 58.7351 273.018 59.1941 272.868 59.6433C272.718 60.086 272.504 60.5287 272.224 60.9714C271.95 61.4076 271.618 61.8503 271.228 62.2996C270.837 62.7488 270.404 63.2143 269.929 63.696L267.458 66.4695H273.552ZM278.19 60.3367H279.694C280.176 60.3367 280.573 60.2553 280.886 60.0925C281.198 59.9233 281.429 59.6889 281.579 59.3894C281.735 59.0834 281.813 58.7286 281.813 58.325C281.813 57.9604 281.742 57.6381 281.599 57.3582C281.462 57.0717 281.25 56.8503 280.964 56.6941C280.677 56.5313 280.316 56.45 279.88 56.45C279.535 56.45 279.216 56.5183 278.923 56.655C278.63 56.7917 278.396 56.9838 278.22 57.2312C278.044 57.4786 277.956 57.7781 277.956 58.1296H275.134C275.134 57.3484 275.342 56.6681 275.759 56.0886C276.182 55.5092 276.748 55.0567 277.458 54.7312C278.168 54.4057 278.949 54.2429 279.802 54.2429C280.765 54.2429 281.608 54.3992 282.331 54.7117C283.054 55.0177 283.617 55.4701 284.021 56.0691C284.424 56.6681 284.626 57.4102 284.626 58.2957C284.626 58.7449 284.522 59.1811 284.313 59.6042C284.105 60.0209 283.806 60.3985 283.415 60.7371C283.031 61.0691 282.562 61.336 282.009 61.5378C281.455 61.7332 280.834 61.8308 280.144 61.8308H278.19V60.3367ZM278.19 62.4753V61.0203H280.144C280.918 61.0203 281.599 61.1082 282.185 61.2839C282.771 61.4597 283.262 61.7136 283.659 62.0457C284.056 62.3712 284.356 62.7585 284.558 63.2078C284.759 63.6505 284.86 64.142 284.86 64.6824C284.86 65.3464 284.733 65.9389 284.479 66.4597C284.226 66.974 283.868 67.4102 283.405 67.7683C282.95 68.1264 282.416 68.3998 281.804 68.5886C281.192 68.7709 280.524 68.8621 279.802 68.8621C279.203 68.8621 278.614 68.7807 278.034 68.6179C277.461 68.4486 276.94 68.198 276.472 67.866C276.009 67.5274 275.638 67.1042 275.358 66.5964C275.085 66.0821 274.948 65.4734 274.948 64.7703H277.771C277.771 65.1348 277.862 65.4604 278.044 65.7468C278.226 66.0333 278.477 66.2579 278.796 66.4207C279.121 66.5834 279.483 66.6648 279.88 66.6648C280.329 66.6648 280.713 66.5834 281.032 66.4207C281.358 66.2514 281.605 66.017 281.774 65.7175C281.95 65.4115 282.038 65.0567 282.038 64.6531C282.038 64.1322 281.944 63.7156 281.755 63.4031C281.566 63.0841 281.296 62.8497 280.944 62.7C280.593 62.5502 280.176 62.4753 279.694 62.4753H278.19ZM289.44 62.1921L287.194 61.655L288.005 54.448H295.993V56.7234H290.319L289.968 59.8777C290.157 59.767 290.443 59.6498 290.827 59.5261C291.211 59.3959 291.641 59.3308 292.116 59.3308C292.806 59.3308 293.418 59.4382 293.952 59.6531C294.486 59.8679 294.938 60.1804 295.31 60.5906C295.687 61.0007 295.974 61.502 296.169 62.0945C296.364 62.6869 296.462 63.3575 296.462 64.1062C296.462 64.7377 296.364 65.3399 296.169 65.9128C295.974 66.4792 295.677 66.9871 295.28 67.4363C294.883 67.879 294.385 68.2273 293.786 68.4812C293.187 68.7351 292.478 68.8621 291.657 68.8621C291.045 68.8621 290.453 68.7709 289.88 68.5886C289.313 68.4063 288.802 68.1361 288.347 67.7781C287.897 67.42 287.536 66.9871 287.263 66.4792C286.996 65.9649 286.856 65.379 286.843 64.7214H289.636C289.675 65.1251 289.779 65.4734 289.948 65.7664C290.124 66.0528 290.355 66.2742 290.642 66.4304C290.928 66.5867 291.263 66.6648 291.647 66.6648C292.006 66.6648 292.312 66.5964 292.565 66.4597C292.819 66.323 293.024 66.1342 293.181 65.8933C293.337 65.6459 293.451 65.3595 293.522 65.0339C293.601 64.7019 293.64 64.3438 293.64 63.9597C293.64 63.5756 293.594 63.2273 293.503 62.9148C293.412 62.6023 293.272 62.3321 293.083 62.1042C292.894 61.8764 292.653 61.7006 292.36 61.5769C292.074 61.4532 291.739 61.3914 291.354 61.3914C290.834 61.3914 290.43 61.4727 290.144 61.6355C289.864 61.7983 289.629 61.9838 289.44 62.1921ZM298.532 67.3093C298.532 66.8927 298.675 66.5444 298.962 66.2644C299.255 65.9845 299.642 65.8445 300.124 65.8445C300.606 65.8445 300.99 65.9845 301.276 66.2644C301.569 66.5444 301.716 66.8927 301.716 67.3093C301.716 67.726 301.569 68.0743 301.276 68.3542C300.99 68.6342 300.606 68.7742 300.124 68.7742C299.642 68.7742 299.255 68.6342 298.962 68.3542C298.675 68.0743 298.532 67.726 298.532 67.3093ZM306.726 62.1921L304.479 61.655L305.29 54.448H313.278V56.7234H307.604L307.253 59.8777C307.442 59.767 307.728 59.6498 308.112 59.5261C308.496 59.3959 308.926 59.3308 309.401 59.3308C310.091 59.3308 310.703 59.4382 311.237 59.6531C311.771 59.8679 312.224 60.1804 312.595 60.5906C312.972 61.0007 313.259 61.502 313.454 62.0945C313.649 62.6869 313.747 63.3575 313.747 64.1062C313.747 64.7377 313.649 65.3399 313.454 65.9128C313.259 66.4792 312.963 66.9871 312.565 67.4363C312.168 67.879 311.67 68.2273 311.071 68.4812C310.472 68.7351 309.763 68.8621 308.942 68.8621C308.33 68.8621 307.738 68.7709 307.165 68.5886C306.599 68.4063 306.088 68.1361 305.632 67.7781C305.183 67.42 304.821 66.9871 304.548 66.4792C304.281 65.9649 304.141 65.379 304.128 64.7214H306.921C306.96 65.1251 307.064 65.4734 307.233 65.7664C307.409 66.0528 307.64 66.2742 307.927 66.4304C308.213 66.5867 308.549 66.6648 308.933 66.6648C309.291 66.6648 309.597 66.5964 309.851 66.4597C310.104 66.323 310.31 66.1342 310.466 65.8933C310.622 65.6459 310.736 65.3595 310.808 65.0339C310.886 64.7019 310.925 64.3438 310.925 63.9597C310.925 63.5756 310.879 63.2273 310.788 62.9148C310.697 62.6023 310.557 62.3321 310.368 62.1042C310.179 61.8764 309.938 61.7006 309.646 61.5769C309.359 61.4532 309.024 61.3914 308.64 61.3914C308.119 61.3914 307.715 61.4727 307.429 61.6355C307.149 61.7983 306.914 61.9838 306.726 62.1921Z" fill="black"/>
<rect x="253.7" y="79.9445" width="47.0667" height="21.7889" rx="10.8944" fill="#3760FF"/>
<path d="M266.396 90.3789V91.6045H261.522V90.3789H266.396ZM264.628 88.4502V93.626H263.295V88.4502H264.628ZM271.85 93.2402V94.3389H266.987V93.4014L269.286 90.9355C269.517 90.6784 269.7 90.4521 269.833 90.2568C269.967 90.0583 270.063 89.8809 270.121 89.7246C270.183 89.5651 270.214 89.4137 270.214 89.2705C270.214 89.0557 270.178 88.8717 270.107 88.7188C270.035 88.5625 269.929 88.4421 269.789 88.3574C269.653 88.2728 269.483 88.2305 269.281 88.2305C269.067 88.2305 268.881 88.2826 268.725 88.3867C268.572 88.4909 268.455 88.6357 268.373 88.8213C268.295 89.0068 268.256 89.2168 268.256 89.4512H266.845C266.845 89.028 266.946 88.6406 267.148 88.2891C267.349 87.9342 267.634 87.6527 268.002 87.4443C268.37 87.2327 268.806 87.127 269.311 87.127C269.809 87.127 270.229 87.2083 270.571 87.3711C270.916 87.5306 271.176 87.7617 271.352 88.0645C271.531 88.3639 271.62 88.722 271.62 89.1387C271.62 89.373 271.583 89.6025 271.508 89.8271C271.433 90.0485 271.326 90.2699 271.186 90.4912C271.049 90.7093 270.883 90.9307 270.688 91.1553C270.492 91.3799 270.276 91.6126 270.038 91.8535L268.803 93.2402H271.85ZM272.656 93.6602C272.656 93.4518 272.727 93.2777 272.871 93.1377C273.017 92.9977 273.211 92.9277 273.452 92.9277C273.692 92.9277 273.885 92.9977 274.028 93.1377C274.174 93.2777 274.247 93.4518 274.247 93.6602C274.247 93.8685 274.174 94.0426 274.028 94.1826C273.885 94.3226 273.692 94.3926 273.452 94.3926C273.211 94.3926 273.017 94.3226 272.871 94.1826C272.727 94.0426 272.656 93.8685 272.656 93.6602ZM280.21 91.6826V92.7861H275.087L275.019 91.9316L277.983 87.2295H279.101L277.89 89.2559L276.416 91.6826H280.21ZM279.404 87.2295V94.3389H277.998V87.2295H279.404ZM282.095 91.1016L280.971 90.833L281.377 87.2295H285.371V88.3672H282.534L282.358 89.9443C282.453 89.889 282.596 89.8304 282.788 89.7686C282.98 89.7035 283.195 89.6709 283.432 89.6709C283.777 89.6709 284.083 89.7246 284.35 89.832C284.617 89.9395 284.844 90.0957 285.029 90.3008C285.218 90.5059 285.361 90.7565 285.459 91.0527C285.556 91.349 285.605 91.6842 285.605 92.0586C285.605 92.3743 285.556 92.6755 285.459 92.9619C285.361 93.2451 285.213 93.499 285.014 93.7236C284.816 93.945 284.567 94.1191 284.267 94.2461C283.968 94.373 283.613 94.4365 283.203 94.4365C282.897 94.4365 282.601 94.391 282.314 94.2998C282.031 94.2087 281.776 94.0736 281.548 93.8945C281.323 93.7155 281.142 93.499 281.006 93.2451C280.872 92.988 280.802 92.695 280.796 92.3662H282.192C282.212 92.568 282.264 92.7422 282.348 92.8887C282.436 93.0319 282.552 93.1426 282.695 93.2207C282.838 93.2988 283.006 93.3379 283.198 93.3379C283.377 93.3379 283.53 93.3037 283.657 93.2354C283.784 93.167 283.887 93.0726 283.965 92.9521C284.043 92.8285 284.1 92.6852 284.136 92.5225C284.175 92.3564 284.194 92.1774 284.194 91.9854C284.194 91.7933 284.171 91.6191 284.126 91.4629C284.08 91.3066 284.01 91.1715 283.916 91.0576C283.821 90.9437 283.701 90.8558 283.554 90.7939C283.411 90.7321 283.244 90.7012 283.052 90.7012C282.791 90.7012 282.589 90.7419 282.446 90.8232C282.306 90.9046 282.189 90.9974 282.095 91.1016ZM286.294 88.9727V88.5967C286.294 88.3265 286.353 88.0807 286.47 87.8594C286.587 87.638 286.759 87.4606 286.987 87.3271C287.215 87.1937 287.495 87.127 287.827 87.127C288.169 87.127 288.454 87.1937 288.682 87.3271C288.913 87.4606 289.085 87.638 289.199 87.8594C289.316 88.0807 289.375 88.3265 289.375 88.5967V88.9727C289.375 89.2363 289.316 89.4788 289.199 89.7002C289.085 89.9215 288.914 90.099 288.687 90.2324C288.459 90.3659 288.177 90.4326 287.842 90.4326C287.503 90.4326 287.218 90.3659 286.987 90.2324C286.759 90.099 286.587 89.9215 286.47 89.7002C286.353 89.4788 286.294 89.2363 286.294 88.9727ZM287.227 88.5967V88.9727C287.227 89.0866 287.248 89.1956 287.29 89.2998C287.336 89.4007 287.404 89.4837 287.495 89.5488C287.59 89.6107 287.703 89.6416 287.837 89.6416C287.977 89.6416 288.091 89.6107 288.179 89.5488C288.267 89.4837 288.332 89.4007 288.374 89.2998C288.416 89.1956 288.438 89.0866 288.438 88.9727V88.5967C288.438 88.4762 288.415 88.3656 288.369 88.2646C288.327 88.1605 288.26 88.0775 288.169 88.0156C288.081 87.9505 287.967 87.918 287.827 87.918C287.697 87.918 287.586 87.9505 287.495 88.0156C287.404 88.0775 287.336 88.1605 287.29 88.2646C287.248 88.3656 287.227 88.4762 287.227 88.5967ZM289.692 92.9717V92.5957C289.692 92.3288 289.751 92.0846 289.868 91.8633C289.989 91.6419 290.163 91.4645 290.391 91.3311C290.622 91.1976 290.905 91.1309 291.24 91.1309C291.579 91.1309 291.862 91.1976 292.09 91.3311C292.318 91.4645 292.49 91.6419 292.607 91.8633C292.725 92.0846 292.783 92.3288 292.783 92.5957V92.9717C292.783 93.2386 292.725 93.4827 292.607 93.7041C292.493 93.9255 292.323 94.1029 292.095 94.2363C291.867 94.3698 291.585 94.4365 291.25 94.4365C290.911 94.4365 290.627 94.3698 290.396 94.2363C290.164 94.1029 289.989 93.9255 289.868 93.7041C289.751 93.4827 289.692 93.2386 289.692 92.9717ZM290.63 92.5957V92.9717C290.63 93.0889 290.656 93.1995 290.708 93.3037C290.76 93.4079 290.832 93.4909 290.923 93.5527C291.017 93.6146 291.126 93.6455 291.25 93.6455C291.406 93.6455 291.528 93.6146 291.616 93.5527C291.704 93.4909 291.764 93.4079 291.797 93.3037C291.833 93.1995 291.851 93.0889 291.851 92.9717V92.5957C291.851 92.4785 291.828 92.3695 291.782 92.2686C291.737 92.1644 291.668 92.0814 291.577 92.0195C291.489 91.9544 291.377 91.9219 291.24 91.9219C291.104 91.9219 290.99 91.9544 290.898 92.0195C290.811 92.0814 290.744 92.1644 290.698 92.2686C290.653 92.3695 290.63 92.4785 290.63 92.5957ZM291.587 88.2451L288.115 93.8018L287.432 93.4404L290.903 87.8838L291.587 88.2451Z" fill="white"/>
<path d="M190.514 154.124L164 142.468V203.897H390V120.731L386.844 119.786L369.799 139.003L362.855 137.112L341.391 155.069L338.866 156.644L317.087 135.537L310.458 139.003L298.464 119.786H296.254L282.366 135.537H280.788L271.318 147.508L260.271 161.684L257.43 163.574L251.117 156.329L237.86 119.156L234.704 116.636L229.654 119.156L220.5 139.633L217.028 142.468L210.084 138.057L203.771 139.633L190.514 154.124Z" fill="url(#paint0_linear_404_29466)"/>
<path d="M164 142.514L188.436 153.289C190.216 154.074 192.305 153.385 193.372 151.76C197.214 145.91 206.497 133.834 214.081 140.331C223.907 148.749 224.48 114.441 235.952 116.948C241.658 118.195 242.86 134.172 247.997 147.502C251.591 156.828 253.281 161.822 257.534 162.878C258.688 163.165 259.827 162.53 260.538 161.576L279.649 135.942C280.031 135.431 280.744 135.304 281.278 135.654V135.654C281.813 136.005 282.528 135.878 282.908 135.365L293.334 121.32C294.964 119.123 298.318 119.342 299.649 121.732L307.722 136.224C308.709 137.995 310.919 138.667 312.724 137.747L315.517 136.322C317.015 135.558 318.838 135.879 319.984 137.11L336.472 154.801C337.862 156.293 340.186 156.408 341.716 155.061L361.205 137.909C362.33 136.919 363.935 136.69 365.292 137.325L366.989 138.12C368.583 138.867 370.481 138.41 371.561 137.021L383.824 121.247C385.124 119.574 387.547 119.303 389.186 120.646L390 121.313" stroke="#3760FF" stroke-width="2.51111"/>
</g>
<rect x="164.25" y="10.25" width="225.5" height="193.5" rx="14.75" stroke="url(#paint1_linear_404_29466)" stroke-width="0.5"/>
</g>
</g>
<defs>
<filter id="filter0_d_404_29466" x="162" y="2" width="258" height="226" filterUnits="userSpaceOnUse" color-interpolation-filters="sRGB">
<feFlood flood-opacity="0" result="BackgroundImageFix"/>
<feColorMatrix in="SourceAlpha" type="matrix" values="0 0 0 0 0 0 0 0 0 0 0 0 0 0 0 0 0 0 127 0" result="hardAlpha"/>
<feOffset dx="14" dy="8"/>
<feGaussianBlur stdDeviation="8"/>
<feComposite in2="hardAlpha" operator="out"/>
<feColorMatrix type="matrix" values="0 0 0 0 0.392253 0 0 0 0 0.392253 0 0 0 0 0.392253 0 0 0 0.25 0"/>
<feBlend mode="normal" in2="BackgroundImageFix" result="effect1_dropShadow_404_29466"/>
<feBlend mode="normal" in="SourceGraphic" in2="effect1_dropShadow_404_29466" result="shape"/>
</filter>
<linearGradient id="paint0_linear_404_29466" x1="277" y1="116.636" x2="277" y2="203.897" gradientUnits="userSpaceOnUse">
<stop stop-color="#0B3DEF" stop-opacity="0.34"/>
<stop offset="1" stop-color="white" stop-opacity="0.08"/>
</linearGradient>
<linearGradient id="paint1_linear_404_29466" x1="164" y1="10" x2="390" y2="204" gradientUnits="userSpaceOnUse">
<stop stop-color="#F6F6F6"/>
<stop offset="1" stop-color="white" stop-opacity="0"/>
</linearGradient>
<clipPath id="clip0_404_29466">
<rect width="555" height="221" fill="white"/>
</clipPath>
<clipPath id="clip1_404_29466">
<rect x="164" y="10" width="226" height="194" rx="15" fill="white"/>
</clipPath>
</defs>
</svg>
