<svg width="555" height="221" viewBox="0 0 555 221" fill="none" xmlns="http://www.w3.org/2000/svg">
<g clip-path="url(#clip0_404_29419)">
<g filter="url(#filter0_dddddd_404_29419)">
<g filter="url(#filter1_i_404_29419)">
<rect x="160.842" y="8" width="233.479" height="455.408" rx="23.1004" fill="#000200"/>
</g>
<path d="M181.599 43.9069L177.848 47.6582L181.599 51.4095" stroke="white" stroke-width="0.980722" stroke-linecap="round" stroke-linejoin="round"/>
<path d="M252.639 51.1228V52.1581H247.555V51.1228H252.639ZM247.812 42.5571V52.1581H246.539V42.5571H247.812ZM251.966 46.685V47.7203H247.555V46.685H251.966ZM252.573 42.5571V43.599H247.555V42.5571H252.573ZM259.707 42.5571H260.974V49.0523C260.974 49.7732 260.813 50.3733 260.492 50.8525C260.171 51.3316 259.745 51.6921 259.213 51.9339C258.685 52.1713 258.112 52.29 257.492 52.29C256.841 52.29 256.252 52.1713 255.725 51.9339C255.201 51.6921 254.786 51.3316 254.478 50.8525C254.175 50.3733 254.023 49.7732 254.023 49.0523V42.5571H255.283V49.0523C255.283 49.5534 255.375 49.9666 255.56 50.292C255.744 50.6173 256.002 50.859 256.331 51.0173C256.665 51.1756 257.052 51.2547 257.492 51.2547C257.936 51.2547 258.323 51.1756 258.652 51.0173C258.986 50.859 259.246 50.6173 259.431 50.292C259.615 49.9666 259.707 49.5534 259.707 49.0523V42.5571ZM262.972 42.5571H266.15C266.871 42.5571 267.48 42.667 267.976 42.8868C268.478 43.1066 268.858 43.4319 269.117 43.8627C269.381 44.2891 269.513 44.8145 269.513 45.4387C269.513 45.8783 269.423 46.2805 269.243 46.6454C269.067 47.0059 268.812 47.3136 268.478 47.5686C268.148 47.8192 267.752 48.006 267.291 48.1291L266.935 48.2676H263.947L263.934 47.2323H266.189C266.647 47.2323 267.027 47.1532 267.33 46.9949C267.634 46.8323 267.862 46.6147 268.016 46.3421C268.17 46.0695 268.247 45.7684 268.247 45.4387C268.247 45.0694 268.174 44.7463 268.029 44.4694C267.884 44.1924 267.656 43.9792 267.343 43.8297C267.036 43.6759 266.638 43.599 266.15 43.599H264.244V52.1581H262.972V42.5571ZM268.583 52.1581L266.249 47.806L267.574 47.7994L269.941 52.079V52.1581H268.583ZM278.705 42.5571L274.702 52.9823H273.654L277.663 42.5571H278.705ZM289.064 42.5571H290.33V49.0523C290.33 49.7732 290.17 50.3733 289.849 50.8525C289.528 51.3316 289.102 51.6921 288.57 51.9339C288.042 52.1713 287.469 52.29 286.849 52.29C286.198 52.29 285.609 52.1713 285.082 51.9339C284.558 51.6921 284.143 51.3316 283.835 50.8525C283.532 50.3733 283.38 49.7732 283.38 49.0523V42.5571H284.64V49.0523C284.64 49.5534 284.732 49.9666 284.917 50.292C285.101 50.6173 285.358 50.859 285.688 51.0173C286.022 51.1756 286.409 51.2547 286.849 51.2547C287.293 51.2547 287.68 51.1756 288.009 51.0173C288.343 50.859 288.603 50.6173 288.787 50.292C288.972 49.9666 289.064 49.5534 289.064 49.0523V42.5571ZM297.445 49.7315C297.445 49.5073 297.41 49.3094 297.34 49.138C297.274 48.9621 297.155 48.8039 296.984 48.6632C296.817 48.5225 296.584 48.3885 296.285 48.261C295.99 48.1335 295.617 48.0038 295.164 47.8719C294.689 47.7312 294.26 47.5752 293.878 47.4037C293.496 47.2279 293.168 47.0279 292.896 46.8037C292.623 46.5795 292.414 46.3223 292.269 46.0322C292.124 45.742 292.051 45.4101 292.051 45.0365C292.051 44.6628 292.128 44.3177 292.282 44.0012C292.436 43.6847 292.656 43.4099 292.942 43.1769C293.232 42.9395 293.577 42.7549 293.977 42.623C294.377 42.4911 294.823 42.4252 295.316 42.4252C296.036 42.4252 296.648 42.5637 297.149 42.8406C297.654 43.1132 298.039 43.4715 298.303 43.9155C298.566 44.3551 298.698 44.8255 298.698 45.3266H297.432C297.432 44.9661 297.355 44.6474 297.201 44.3705C297.048 44.0891 296.815 43.8693 296.502 43.7111C296.19 43.5484 295.795 43.4671 295.316 43.4671C294.863 43.4671 294.489 43.5352 294.195 43.6715C293.9 43.8078 293.68 43.9924 293.535 44.2254C293.394 44.4584 293.324 44.7243 293.324 45.0233C293.324 45.2255 293.366 45.4101 293.449 45.5772C293.537 45.7398 293.671 45.8915 293.852 46.0322C294.036 46.1728 294.269 46.3025 294.551 46.4212C294.836 46.5399 295.177 46.6542 295.573 46.7641C296.118 46.918 296.588 47.0894 296.984 47.2785C297.379 47.4675 297.705 47.6807 297.96 47.9181C298.219 48.1511 298.41 48.417 298.533 48.716C298.661 49.0105 298.725 49.3446 298.725 49.7183C298.725 50.1095 298.646 50.4634 298.487 50.7799C298.329 51.0964 298.103 51.3668 297.808 51.591C297.514 51.8152 297.16 51.9888 296.746 52.1119C296.338 52.2306 295.88 52.29 295.375 52.29C294.931 52.29 294.493 52.2284 294.063 52.1053C293.636 51.9822 293.247 51.7976 292.896 51.5514C292.548 51.3052 292.269 51.0019 292.058 50.6414C291.851 50.2766 291.748 49.8545 291.748 49.3754H293.014C293.014 49.7051 293.078 49.9886 293.205 50.226C293.333 50.459 293.507 50.6524 293.726 50.8063C293.951 50.9602 294.203 51.0745 294.485 51.1492C294.77 51.2195 295.067 51.2547 295.375 51.2547C295.819 51.2547 296.195 51.1931 296.502 51.0701C296.81 50.947 297.043 50.7711 297.201 50.5425C297.364 50.3139 297.445 50.0436 297.445 49.7315ZM302.945 52.1581H300.94L300.953 51.1228H302.945C303.631 51.1228 304.202 50.9799 304.659 50.6942C305.117 50.4041 305.459 49.9996 305.688 49.4809C305.921 48.9577 306.038 48.3467 306.038 47.6477V47.0609C306.038 46.5113 305.972 46.0234 305.84 45.597C305.708 45.1661 305.514 44.8035 305.259 44.5089C305.004 44.21 304.692 43.9836 304.323 43.8297C303.958 43.6759 303.538 43.599 303.064 43.599H300.901V42.5571H303.064C303.692 42.5571 304.266 42.6626 304.785 42.8736C305.303 43.0802 305.75 43.3813 306.123 43.777C306.501 44.1682 306.791 44.643 306.994 45.2013C307.196 45.7552 307.297 46.3795 307.297 47.074V47.6477C307.297 48.3423 307.196 48.9687 306.994 49.527C306.791 50.0809 306.499 50.5535 306.117 50.9448C305.739 51.336 305.281 51.6371 304.745 51.8482C304.213 52.0548 303.613 52.1581 302.945 52.1581ZM301.619 42.5571V52.1581H300.347V42.5571H301.619Z" fill="#EDEDED"/>
<g clip-path="url(#clip1_404_29419)">
<path d="M369.86 49.9002C371.035 49.9002 371.988 48.9838 371.988 47.8534C371.988 46.7229 371.035 45.8065 369.86 45.8065C368.684 45.8065 367.731 46.7229 367.731 47.8534C367.731 48.9838 368.684 49.9002 369.86 49.9002Z" stroke="white" stroke-width="1.03127" stroke-linecap="round" stroke-linejoin="round"/>
<path d="M377.311 54.5055C378.487 54.5055 379.44 53.5891 379.44 52.4587C379.44 51.3283 378.487 50.4119 377.311 50.4119C376.135 50.4119 375.182 51.3283 375.182 52.4587C375.182 53.5891 376.135 54.5055 377.311 54.5055Z" stroke="white" stroke-width="1.03127" stroke-linecap="round" stroke-linejoin="round"/>
<path d="M377.311 45.2948C378.487 45.2948 379.44 44.3784 379.44 43.248C379.44 42.1176 378.487 41.2012 377.311 41.2012C376.135 41.2012 375.182 42.1176 375.182 43.248C375.182 44.3784 376.135 45.2948 377.311 45.2948Z" stroke="white" stroke-width="1.03127" stroke-linecap="round" stroke-linejoin="round"/>
<path d="M375.52 44.3546L371.65 46.7469" stroke="white" stroke-width="1.03127" stroke-linecap="round" stroke-linejoin="round"/>
<path d="M371.65 48.9598L375.52 51.3521" stroke="white" stroke-width="1.03127" stroke-linecap="round" stroke-linejoin="round"/>
</g>
<path d="M239.035 76.4382L242.544 79.9467C243.093 80.4961 243.368 80.7708 243.386 81.0067C243.403 81.2114 243.32 81.4114 243.164 81.5447C242.984 81.6984 242.595 81.6984 241.818 81.6984H234.801C234.024 81.6984 233.636 81.6984 233.456 81.5447C233.3 81.4114 233.217 81.2114 233.233 81.0067C233.251 80.7708 233.526 80.4961 234.076 79.9467L237.584 76.4382L237.584 76.4382C237.838 76.1842 237.965 76.0572 238.111 76.0097C238.24 75.9678 238.379 75.9678 238.508 76.0097C238.654 76.0572 238.781 76.1842 239.035 76.4382Z" fill="#52CF88"/>
<path d="M258.094 69.3554V72.3074H256.554V69.3554H258.094ZM257.905 85.5864V88.2501H256.375V85.5864H257.905ZM259.198 82.3462C259.198 81.9685 259.125 81.6405 258.979 81.3622C258.84 81.0839 258.605 80.8354 258.273 80.6167C257.949 80.398 257.511 80.1893 256.961 79.9905C256.106 79.6791 255.358 79.3378 254.715 78.9668C254.072 78.5891 253.572 78.1219 253.214 77.5653C252.863 77.0087 252.687 76.3063 252.687 75.4582C252.687 74.6431 252.876 73.9374 253.254 73.3411C253.638 72.7381 254.172 72.2742 254.854 71.9496C255.537 71.6182 256.328 71.4526 257.23 71.4526C257.932 71.4526 258.561 71.5586 259.118 71.7706C259.681 71.9761 260.162 72.2776 260.559 72.6751C260.964 73.0727 261.272 73.5631 261.484 74.1462C261.702 74.7226 261.812 75.382 261.812 76.1241H259.188C259.188 75.7133 259.141 75.3488 259.049 75.0308C258.956 74.7127 258.823 74.4443 258.651 74.2257C258.479 74.0004 258.27 73.8314 258.025 73.7188C257.786 73.6061 257.515 73.5498 257.21 73.5498C256.772 73.5498 256.411 73.6326 256.126 73.7983C255.848 73.9639 255.643 74.1892 255.51 74.4742C255.384 74.7591 255.321 75.0871 255.321 75.4582C255.321 75.816 255.388 76.1307 255.52 76.4024C255.659 76.6675 255.891 76.9093 256.216 77.128C256.547 77.3466 257.001 77.5686 257.577 77.7939C258.439 78.112 259.188 78.4632 259.824 78.8475C260.46 79.2252 260.954 79.689 261.305 80.239C261.656 80.789 261.832 81.4847 261.832 82.3263C261.832 83.1877 261.633 83.9166 261.235 84.5129C260.844 85.1093 260.294 85.5632 259.585 85.8746C258.876 86.1861 258.051 86.3418 257.11 86.3418C256.507 86.3418 255.911 86.2623 255.321 86.1032C254.732 85.9442 254.195 85.6858 253.711 85.328C253.234 84.9635 252.853 84.4831 252.568 83.8868C252.283 83.2838 252.141 82.5449 252.141 81.6703H254.775C254.775 82.1739 254.841 82.5913 254.973 82.9226C255.106 83.2539 255.285 83.519 255.51 83.7178C255.735 83.9099 255.987 84.0458 256.265 84.1253C256.544 84.2048 256.825 84.2446 257.11 84.2446C257.574 84.2446 257.959 84.1651 258.263 84.006C258.575 83.847 258.807 83.625 258.959 83.3401C259.118 83.0485 259.198 82.7172 259.198 82.3462ZM270.618 71.6216V86.1331H267.984V74.6928L264.495 75.8458V73.7188L270.32 71.6216H270.618ZM285.537 80.8552V82.9226H275.111L275.001 81.3323L281.134 71.6613H283.231L280.965 75.5079L277.675 80.8552H285.537ZM283.817 71.6613V86.1331H281.184V71.6613H283.817ZM293.876 71.6216V86.1331H291.242V74.6928L287.753 75.8458V73.7188L293.578 71.6216H293.876ZM298.995 84.8509C298.995 84.4533 299.131 84.1187 299.402 83.847C299.674 83.5753 300.042 83.4395 300.506 83.4395C300.97 83.4395 301.337 83.5753 301.609 83.847C301.881 84.1187 302.016 84.4533 302.016 84.8509C302.016 85.2418 301.881 85.5731 301.609 85.8448C301.337 86.1099 300.97 86.2424 300.506 86.2424C300.042 86.2424 299.674 86.1099 299.402 85.8448C299.131 85.5731 298.995 85.2418 298.995 84.8509ZM314.331 84.0657V86.1331H304.531V84.3638L309.232 79.2848C309.723 78.7282 310.11 78.2445 310.395 77.8337C310.68 77.4228 310.882 77.0518 311.002 76.7205C311.128 76.3825 311.191 76.0611 311.191 75.7563C311.191 75.3124 311.111 74.9247 310.952 74.5934C310.793 74.2555 310.561 73.9938 310.256 73.8082C309.958 73.6227 309.59 73.5299 309.153 73.5299C308.669 73.5299 308.255 73.6426 307.911 73.8679C307.573 74.0865 307.314 74.3913 307.135 74.7823C306.963 75.1732 306.877 75.6205 306.877 76.1241H304.243C304.243 75.2693 304.442 74.4907 304.839 73.7883C305.237 73.0793 305.807 72.5128 306.549 72.0887C307.291 71.6646 308.172 71.4526 309.193 71.4526C310.187 71.4526 311.028 71.6182 311.717 71.9496C312.406 72.2742 312.93 72.7381 313.288 73.3411C313.646 73.9441 313.824 74.663 313.824 75.4979C313.824 75.9618 313.748 76.419 313.596 76.8696C313.443 77.3201 313.228 77.7674 312.95 78.2114C312.678 78.6487 312.353 79.0927 311.976 79.5432C311.598 79.9938 311.177 80.4544 310.713 80.9248L307.891 84.0657H314.331ZM322.919 71.6216V86.1331H320.285V74.6928L316.796 75.8458V73.7188L322.621 71.6216H322.919Z" fill="white"/>
<g clip-path="url(#clip2_404_29419)">
<path d="M172.846 107.883C172.846 106.048 172.846 105.131 173.203 104.43C173.517 103.814 174.018 103.313 174.635 102.999C175.335 102.641 176.253 102.641 178.087 102.641H207.733V120.831H178.087C176.253 120.831 175.335 120.831 174.635 120.474C174.018 120.16 173.517 119.659 173.203 119.042C172.846 118.342 172.846 117.424 172.846 115.59V107.883Z" fill="#212121"/>
<rect x="174.484" y="104.279" width="33.2492" height="14.9137" rx="3.2758" fill="#3760FF"/>
<path d="M189.12 109.066V113.736H188.272V110.054L187.149 110.425V109.741L189.024 109.066H189.12ZM192.187 113.736H191.183L191.189 113.045H192.187C192.458 113.045 192.685 112.986 192.869 112.866C193.052 112.745 193.191 112.571 193.285 112.345C193.379 112.116 193.426 111.843 193.426 111.526V111.286C193.426 111.04 193.399 110.824 193.346 110.636C193.292 110.449 193.213 110.291 193.109 110.163C193.006 110.035 192.88 109.938 192.728 109.872C192.577 109.806 192.403 109.773 192.207 109.773H191.164V109.078H192.207C192.518 109.078 192.802 109.131 193.058 109.235C193.316 109.34 193.539 109.49 193.726 109.686C193.916 109.88 194.061 110.113 194.161 110.384C194.264 110.654 194.315 110.957 194.315 111.292V111.526C194.315 111.858 194.264 112.161 194.161 112.434C194.061 112.705 193.916 112.938 193.726 113.132C193.539 113.326 193.315 113.475 193.054 113.579C192.794 113.684 192.505 113.736 192.187 113.736ZM191.676 109.078V113.736H190.796V109.078H191.676Z" fill="white"/>
</g>
<g clip-path="url(#clip3_404_29419)">
<path d="M207.733 102.641H242.62V120.831H207.733V102.641Z" fill="#212121"/>
<path d="M222.688 109.066V113.736H221.84V110.054L220.717 110.425V109.741L222.592 109.066H222.688ZM225.51 112.844L226.437 109.078H226.939L226.971 109.872L225.98 113.736H225.449L225.51 112.844ZM224.924 109.078L225.685 112.831V113.736H225.106L224.051 109.078H224.924ZM227.934 112.815L228.683 109.078H229.559L228.504 113.736H227.925L227.934 112.815ZM227.179 109.078L228.107 112.856L228.162 113.736H227.63L226.642 109.869L226.68 109.078H227.179Z" fill="#B5B5B5"/>
</g>
<g clip-path="url(#clip4_404_29419)">
<path d="M242.62 102.641H277.507V120.831H242.62V102.641Z" fill="#212121"/>
<path d="M257.575 109.066V113.736H256.727V110.054L255.604 110.425V109.741L257.479 109.066H257.575ZM259.635 109.078H260.396L261.67 112.585L262.94 109.078H263.704L261.974 113.736H261.363L259.635 109.078ZM259.251 109.078H259.997L260.131 112.3V113.736H259.251V109.078ZM263.34 109.078H264.088V113.736H263.208V112.3L263.34 109.078Z" fill="#B5B5B5"/>
</g>
<g clip-path="url(#clip5_404_29419)">
<path d="M277.507 102.641H312.394V120.831H277.507V102.641Z" fill="#212121"/>
<path d="M291.211 111.033H291.688C291.856 111.033 291.995 111.004 292.104 110.947C292.215 110.887 292.297 110.806 292.35 110.704C292.406 110.599 292.433 110.479 292.433 110.342C292.433 110.208 292.409 110.091 292.36 109.993C292.311 109.893 292.236 109.816 292.136 109.763C292.038 109.708 291.912 109.68 291.758 109.68C291.635 109.68 291.521 109.704 291.416 109.753C291.314 109.802 291.232 109.873 291.17 109.965C291.11 110.054 291.08 110.162 291.08 110.288H290.232C290.232 110.036 290.299 109.815 290.431 109.625C290.565 109.434 290.746 109.283 290.975 109.174C291.203 109.066 291.458 109.011 291.739 109.011C292.046 109.011 292.315 109.062 292.545 109.165C292.778 109.265 292.958 109.413 293.086 109.609C293.216 109.806 293.281 110.049 293.281 110.339C293.281 110.477 293.248 110.616 293.182 110.755C293.118 110.891 293.023 111.015 292.897 111.126C292.774 111.235 292.621 111.323 292.44 111.391C292.261 111.457 292.055 111.49 291.822 111.49H291.211V111.033ZM291.211 111.686V111.235H291.822C292.085 111.235 292.312 111.265 292.504 111.327C292.698 111.387 292.858 111.472 292.984 111.583C293.109 111.692 293.202 111.819 293.262 111.964C293.324 112.109 293.355 112.265 293.355 112.431C293.355 112.649 293.314 112.843 293.233 113.013C293.152 113.182 293.038 113.325 292.891 113.442C292.746 113.559 292.575 113.649 292.379 113.711C292.183 113.77 291.971 113.8 291.742 113.8C291.544 113.8 291.351 113.774 291.163 113.72C290.978 113.665 290.81 113.583 290.661 113.474C290.512 113.363 290.393 113.224 290.306 113.058C290.219 112.89 290.175 112.694 290.175 112.473H291.023C291.023 112.601 291.054 112.715 291.115 112.815C291.179 112.915 291.267 112.994 291.378 113.052C291.491 113.107 291.618 113.135 291.758 113.135C291.914 113.135 292.047 113.107 292.158 113.052C292.271 112.994 292.358 112.913 292.417 112.808C292.477 112.702 292.507 112.575 292.507 112.428C292.507 112.253 292.474 112.111 292.408 112.002C292.342 111.894 292.247 111.814 292.123 111.762C292.001 111.711 291.856 111.686 291.688 111.686H291.211ZM294.522 109.078H295.284L296.557 112.585L297.827 109.078H298.591L296.861 113.736H296.25L294.522 109.078ZM294.138 109.078H294.884L295.018 112.3V113.736H294.138V109.078ZM298.227 109.078H298.975V113.736H298.096V112.3L298.227 109.078Z" fill="#B5B5B5"/>
</g>
<g clip-path="url(#clip6_404_29419)">
<path d="M312.395 102.641H347.282V120.831H312.395V102.641Z" fill="#212121"/>
<path d="M327.525 109.04H327.64V109.721H327.586C327.328 109.721 327.101 109.761 326.905 109.84C326.711 109.919 326.549 110.03 326.418 110.172C326.29 110.313 326.193 110.481 326.127 110.675C326.061 110.867 326.028 111.077 326.028 111.305V112.06C326.028 112.237 326.046 112.393 326.083 112.527C326.121 112.659 326.173 112.771 326.239 112.863C326.308 112.952 326.386 113.02 326.476 113.064C326.568 113.109 326.668 113.132 326.777 113.132C326.886 113.132 326.984 113.109 327.071 113.064C327.158 113.02 327.233 112.957 327.295 112.876C327.359 112.792 327.407 112.695 327.439 112.585C327.473 112.474 327.49 112.352 327.49 112.22C327.49 112.09 327.474 111.969 327.442 111.858C327.41 111.747 327.363 111.65 327.301 111.567C327.24 111.482 327.163 111.417 327.071 111.372C326.981 111.325 326.879 111.302 326.764 111.302C326.615 111.302 326.481 111.337 326.364 111.407C326.247 111.476 326.154 111.565 326.086 111.676C326.018 111.787 325.98 111.904 325.974 112.028L325.689 111.887C325.7 111.706 325.738 111.54 325.804 111.388C325.872 111.237 325.963 111.104 326.076 110.991C326.191 110.878 326.327 110.791 326.482 110.729C326.64 110.667 326.815 110.636 327.007 110.636C327.229 110.636 327.423 110.679 327.589 110.764C327.756 110.847 327.893 110.962 328.002 111.107C328.113 111.252 328.196 111.419 328.251 111.609C328.307 111.797 328.335 111.995 328.335 112.204C328.335 112.428 328.298 112.637 328.226 112.831C328.156 113.025 328.053 113.195 327.919 113.34C327.784 113.485 327.622 113.598 327.433 113.679C327.243 113.76 327.029 113.8 326.793 113.8C326.543 113.8 326.319 113.753 326.121 113.659C325.925 113.566 325.756 113.435 325.615 113.269C325.475 113.103 325.367 112.909 325.292 112.687C325.218 112.465 325.18 112.225 325.18 111.967V111.628C325.18 111.263 325.231 110.924 325.331 110.611C325.431 110.297 325.579 110.023 325.775 109.789C325.974 109.552 326.219 109.368 326.511 109.238C326.803 109.106 327.141 109.04 327.525 109.04ZM329.41 109.078H330.171L331.444 112.585L332.714 109.078H333.479L331.748 113.736H331.137L329.41 109.078ZM329.026 109.078H329.771L329.905 112.3V113.736H329.026V109.078ZM333.114 109.078H333.863V113.736H332.983V112.3L333.114 109.078Z" fill="#B5B5B5"/>
</g>
<g clip-path="url(#clip7_404_29419)">
<path d="M347.281 102.641H376.927C378.762 102.641 379.679 102.641 380.38 102.999C380.996 103.313 381.498 103.814 381.812 104.43C382.169 105.131 382.169 106.048 382.169 107.883V115.59C382.169 117.424 382.169 118.342 381.812 119.042C381.498 119.659 380.996 120.16 380.38 120.474C379.679 120.831 378.762 120.831 376.927 120.831H347.281V102.641Z" fill="#212121"/>
<path d="M362.417 109.066V113.736H361.569V110.054L360.447 110.425V109.741L362.321 109.066H362.417ZM364.637 109.078L365.661 111.251L366.691 109.078H367.657L366.109 112.031V113.736H365.216V112.031L363.665 109.078H364.637Z" fill="#B5B5B5"/>
</g>
<path d="M174.097 143.633H174.519C174.726 143.633 174.897 143.599 175.031 143.531C175.167 143.461 175.269 143.366 175.335 143.246C175.403 143.125 175.437 142.988 175.437 142.837C175.437 142.658 175.407 142.507 175.348 142.386C175.288 142.264 175.198 142.173 175.079 142.111C174.959 142.049 174.808 142.018 174.625 142.018C174.458 142.018 174.311 142.051 174.183 142.117C174.057 142.181 173.958 142.273 173.886 142.392C173.815 142.512 173.78 142.652 173.78 142.814H173.188C173.188 142.578 173.248 142.362 173.367 142.168C173.487 141.974 173.654 141.82 173.87 141.704C174.087 141.589 174.339 141.532 174.625 141.532C174.906 141.532 175.152 141.582 175.364 141.682C175.575 141.78 175.739 141.927 175.856 142.123C175.974 142.318 176.032 142.56 176.032 142.85C176.032 142.967 176.004 143.093 175.949 143.227C175.896 143.359 175.811 143.483 175.696 143.598C175.583 143.713 175.436 143.808 175.255 143.883C175.074 143.955 174.856 143.992 174.602 143.992H174.097V143.633ZM174.097 144.12V143.765H174.602C174.899 143.765 175.144 143.8 175.338 143.87C175.532 143.941 175.685 144.034 175.795 144.152C175.908 144.269 175.987 144.398 176.032 144.539C176.079 144.677 176.103 144.816 176.103 144.955C176.103 145.172 176.065 145.365 175.991 145.534C175.918 145.702 175.815 145.845 175.68 145.962C175.548 146.08 175.392 146.168 175.213 146.228C175.034 146.288 174.839 146.317 174.628 146.317C174.425 146.317 174.234 146.289 174.055 146.231C173.878 146.173 173.721 146.09 173.585 145.982C173.448 145.871 173.342 145.735 173.265 145.575C173.188 145.413 173.15 145.229 173.15 145.022H173.742C173.742 145.184 173.777 145.326 173.847 145.447C173.92 145.569 174.022 145.664 174.154 145.732C174.289 145.798 174.447 145.831 174.628 145.831C174.809 145.831 174.965 145.8 175.095 145.738C175.227 145.674 175.328 145.578 175.399 145.45C175.471 145.323 175.508 145.161 175.508 144.967C175.508 144.773 175.467 144.614 175.386 144.491C175.305 144.365 175.19 144.272 175.04 144.212C174.893 144.151 174.72 144.12 174.519 144.12H174.097ZM178.796 142.008L177.254 146.253H176.624L178.399 141.596H178.806L178.796 142.008ZM180.089 146.253L178.543 142.008L178.534 141.596H178.94L180.722 146.253H180.089ZM180.009 144.529V145.035H177.392V144.529H180.009ZM181.541 141.596H182.139L183.665 145.393L185.188 141.596H185.789L183.895 146.253H183.428L181.541 141.596ZM181.346 141.596H181.874L181.96 144.436V146.253H181.346V141.596ZM185.453 141.596H185.981V146.253H185.367V144.436L185.453 141.596Z" fill="#717172"/>
<path d="M207.545 141.589H207.596V142.091H207.545C207.232 142.091 206.969 142.143 206.758 142.245C206.547 142.345 206.38 142.481 206.256 142.651C206.132 142.82 206.043 143.01 205.987 143.221C205.934 143.432 205.907 143.646 205.907 143.864V144.548C205.907 144.755 205.932 144.939 205.981 145.099C206.03 145.256 206.097 145.39 206.182 145.498C206.268 145.607 206.364 145.689 206.47 145.745C206.579 145.8 206.692 145.828 206.809 145.828C206.946 145.828 207.067 145.802 207.174 145.751C207.281 145.698 207.37 145.624 207.443 145.53C207.517 145.434 207.574 145.321 207.612 145.191C207.651 145.061 207.67 144.918 207.67 144.763C207.67 144.624 207.653 144.491 207.619 144.363C207.585 144.233 207.532 144.118 207.462 144.017C207.392 143.915 207.303 143.835 207.196 143.777C207.092 143.718 206.967 143.688 206.822 143.688C206.658 143.688 206.504 143.728 206.361 143.809C206.221 143.888 206.104 143.993 206.013 144.123C205.923 144.251 205.872 144.391 205.859 144.542L205.546 144.539C205.576 144.3 205.631 144.096 205.712 143.928C205.795 143.757 205.898 143.618 206.019 143.512C206.143 143.403 206.28 143.324 206.432 143.275C206.585 143.224 206.747 143.198 206.918 143.198C207.151 143.198 207.351 143.242 207.52 143.33C207.688 143.417 207.827 143.534 207.935 143.681C208.044 143.826 208.124 143.991 208.175 144.174C208.229 144.355 208.255 144.542 208.255 144.734C208.255 144.954 208.224 145.159 208.163 145.351C208.101 145.543 208.008 145.712 207.884 145.857C207.763 146.002 207.612 146.115 207.433 146.196C207.254 146.277 207.046 146.317 206.809 146.317C206.558 146.317 206.338 146.266 206.15 146.164C205.963 146.059 205.807 145.921 205.683 145.748C205.56 145.575 205.467 145.383 205.405 145.172C205.343 144.961 205.312 144.747 205.312 144.529V144.251C205.312 143.922 205.345 143.6 205.411 143.285C205.477 142.969 205.592 142.683 205.754 142.427C205.918 142.171 206.145 141.968 206.435 141.816C206.725 141.665 207.095 141.589 207.545 141.589ZM210.837 142.008L209.295 146.253H208.665L210.44 141.596H210.846L210.837 142.008ZM212.129 146.253L210.584 142.008L210.575 141.596H210.981L212.763 146.253H212.129ZM212.049 144.529V145.035H209.433V144.529H212.049ZM213.582 141.596H214.18L215.706 145.393L217.229 141.596H217.83L215.936 146.253H215.469L213.582 141.596ZM213.387 141.596H213.914L214.001 144.436V146.253H213.387V141.596ZM217.494 141.596H218.022V146.253H217.408V144.436L217.494 141.596Z" fill="#717172"/>
<path d="M237.903 145.758H237.964C238.305 145.758 238.582 145.71 238.795 145.614C239.009 145.518 239.173 145.389 239.288 145.227C239.403 145.064 239.482 144.882 239.525 144.68C239.568 144.475 239.589 144.265 239.589 144.049V143.336C239.589 143.125 239.564 142.937 239.515 142.773C239.468 142.609 239.402 142.471 239.317 142.36C239.234 142.249 239.139 142.165 239.032 142.107C238.926 142.05 238.813 142.021 238.693 142.021C238.557 142.021 238.434 142.049 238.325 142.104C238.219 142.158 238.128 142.233 238.053 142.331C237.981 142.43 237.925 142.545 237.887 142.677C237.849 142.809 237.829 142.953 237.829 143.109C237.829 143.247 237.846 143.382 237.881 143.512C237.915 143.642 237.967 143.759 238.037 143.864C238.108 143.968 238.195 144.051 238.3 144.113C238.406 144.173 238.531 144.203 238.674 144.203C238.806 144.203 238.93 144.177 239.045 144.126C239.162 144.073 239.266 144.001 239.355 143.912C239.447 143.82 239.52 143.717 239.573 143.601C239.628 143.486 239.66 143.366 239.669 143.24H239.95C239.95 143.417 239.915 143.592 239.845 143.765C239.777 143.935 239.681 144.091 239.557 144.232C239.433 144.372 239.288 144.485 239.122 144.571C238.955 144.654 238.774 144.695 238.578 144.695C238.348 144.695 238.148 144.651 237.98 144.561C237.811 144.472 237.673 144.352 237.564 144.203C237.457 144.054 237.377 143.887 237.324 143.704C237.273 143.518 237.247 143.331 237.247 143.141C237.247 142.919 237.278 142.711 237.34 142.517C237.402 142.323 237.493 142.152 237.615 142.005C237.737 141.856 237.887 141.74 238.066 141.656C238.247 141.573 238.456 141.532 238.693 141.532C238.96 141.532 239.187 141.585 239.374 141.692C239.562 141.798 239.715 141.941 239.832 142.12C239.951 142.299 240.039 142.501 240.094 142.725C240.15 142.949 240.177 143.179 240.177 143.416V143.63C240.177 143.871 240.161 144.116 240.129 144.366C240.1 144.613 240.041 144.85 239.954 145.076C239.868 145.302 239.743 145.505 239.579 145.684C239.415 145.861 239.201 146.002 238.936 146.106C238.674 146.209 238.35 146.26 237.964 146.26H237.903V145.758ZM242.877 142.008L241.335 146.253H240.705L242.481 141.596H242.887L242.877 142.008ZM244.17 146.253L242.625 142.008L242.615 141.596H243.021L244.803 146.253H244.17ZM244.09 144.529V145.035H241.473V144.529H244.09ZM245.622 141.596H246.22L247.746 145.393L249.269 141.596H249.87L247.977 146.253H247.51L245.622 141.596ZM245.427 141.596H245.955L246.041 144.436V146.253H245.427V141.596ZM249.535 141.596H250.062V146.253H249.448V144.436L249.535 141.596Z" fill="#717172"/>
<path d="M271.3 141.57V146.253H270.708V142.309L269.515 142.744V142.21L271.207 141.57H271.3ZM276.092 145.767V146.253H273.043V145.828L274.569 144.129C274.757 143.92 274.902 143.743 275.004 143.598C275.109 143.451 275.181 143.32 275.222 143.205C275.265 143.087 275.286 142.968 275.286 142.846C275.286 142.693 275.254 142.554 275.19 142.431C275.128 142.305 275.036 142.205 274.915 142.13C274.793 142.055 274.646 142.018 274.473 142.018C274.266 142.018 274.094 142.058 273.955 142.139C273.819 142.218 273.716 142.329 273.648 142.472C273.58 142.615 273.546 142.779 273.546 142.965H272.954C272.954 142.703 273.011 142.463 273.126 142.245C273.242 142.028 273.412 141.855 273.638 141.727C273.864 141.597 274.143 141.532 274.473 141.532C274.768 141.532 275.019 141.584 275.228 141.688C275.437 141.791 275.597 141.936 275.708 142.123C275.821 142.309 275.878 142.527 275.878 142.776C275.878 142.913 275.854 143.051 275.807 143.192C275.762 143.331 275.7 143.469 275.619 143.608C275.54 143.746 275.447 143.883 275.34 144.017C275.236 144.152 275.124 144.284 275.004 144.414L273.757 145.767H276.092ZM278.597 144.427H277.352V143.925H278.597C278.838 143.925 279.033 143.886 279.182 143.809C279.332 143.733 279.44 143.626 279.509 143.489C279.579 143.353 279.614 143.197 279.614 143.022C279.614 142.862 279.579 142.712 279.509 142.571C279.44 142.431 279.332 142.318 279.182 142.232C279.033 142.145 278.838 142.101 278.597 142.101H277.496V146.253H276.879V141.596H278.597C278.949 141.596 279.246 141.656 279.489 141.778C279.732 141.9 279.917 142.068 280.043 142.283C280.169 142.497 280.232 142.741 280.232 143.016C280.232 143.315 280.169 143.569 280.043 143.781C279.917 143.992 279.732 144.153 279.489 144.264C279.246 144.372 278.949 144.427 278.597 144.427ZM281.207 141.596H281.805L283.331 145.393L284.854 141.596H285.456L283.562 146.253H283.095L281.207 141.596ZM281.012 141.596H281.54L281.626 144.436V146.253H281.012V141.596ZM285.12 141.596H285.647V146.253H285.033V144.436L285.12 141.596Z" fill="#717172"/>
<path d="M306.259 143.633H306.682C306.889 143.633 307.059 143.599 307.193 143.531C307.33 143.461 307.431 143.366 307.497 143.246C307.566 143.125 307.6 142.988 307.6 142.837C307.6 142.658 307.57 142.507 307.51 142.386C307.45 142.264 307.361 142.173 307.241 142.111C307.122 142.049 306.971 142.018 306.787 142.018C306.621 142.018 306.474 142.051 306.346 142.117C306.22 142.181 306.121 142.273 306.048 142.392C305.978 142.512 305.943 142.652 305.943 142.814H305.351C305.351 142.578 305.411 142.362 305.53 142.168C305.649 141.974 305.817 141.82 306.032 141.704C306.25 141.589 306.501 141.532 306.787 141.532C307.069 141.532 307.315 141.582 307.526 141.682C307.737 141.78 307.902 141.927 308.019 142.123C308.136 142.318 308.195 142.56 308.195 142.85C308.195 142.967 308.167 143.093 308.112 143.227C308.058 143.359 307.974 143.483 307.859 143.598C307.746 143.713 307.599 143.808 307.417 143.883C307.236 143.955 307.019 143.992 306.765 143.992H306.259V143.633ZM306.259 144.12V143.765H306.765C307.061 143.765 307.307 143.8 307.501 143.87C307.695 143.941 307.847 144.034 307.958 144.152C308.071 144.269 308.15 144.398 308.195 144.539C308.242 144.677 308.265 144.816 308.265 144.955C308.265 145.172 308.228 145.365 308.153 145.534C308.081 145.702 307.977 145.845 307.843 145.962C307.711 146.08 307.555 146.168 307.376 146.228C307.197 146.288 307.002 146.317 306.79 146.317C306.588 146.317 306.397 146.289 306.218 146.231C306.041 146.173 305.884 146.09 305.748 145.982C305.611 145.871 305.504 145.735 305.428 145.575C305.351 145.413 305.312 145.229 305.312 145.022H305.904C305.904 145.184 305.939 145.326 306.01 145.447C306.082 145.569 306.185 145.664 306.317 145.732C306.451 145.798 306.609 145.831 306.79 145.831C306.972 145.831 307.127 145.8 307.257 145.738C307.39 145.674 307.491 145.578 307.561 145.45C307.634 145.323 307.67 145.161 307.67 144.967C307.67 144.773 307.63 144.614 307.549 144.491C307.468 144.365 307.352 144.272 307.203 144.212C307.056 144.151 306.882 144.12 306.682 144.12H306.259ZM310.952 144.427H309.708V143.925H310.952C311.193 143.925 311.388 143.886 311.538 143.809C311.687 143.733 311.796 143.626 311.864 143.489C311.934 143.353 311.97 143.197 311.97 143.022C311.97 142.862 311.934 142.712 311.864 142.571C311.796 142.431 311.687 142.318 311.538 142.232C311.388 142.145 311.193 142.101 310.952 142.101H309.852V146.253H309.234V141.596H310.952C311.304 141.596 311.602 141.656 311.845 141.778C312.088 141.9 312.272 142.068 312.398 142.283C312.524 142.497 312.587 142.741 312.587 143.016C312.587 143.315 312.524 143.569 312.398 143.781C312.272 143.992 312.088 144.153 311.845 144.264C311.602 144.372 311.304 144.427 310.952 144.427ZM313.563 141.596H314.161L315.687 145.393L317.21 141.596H317.811L315.917 146.253H315.45L313.563 141.596ZM313.368 141.596H313.895L313.982 144.436V146.253H313.368V141.596ZM317.475 141.596H318.003V146.253H317.389V144.436L317.475 141.596Z" fill="#717172"/>
<path d="M339.708 141.589H339.759V142.091H339.708C339.394 142.091 339.132 142.143 338.921 142.245C338.71 142.345 338.542 142.481 338.418 142.651C338.295 142.82 338.205 143.01 338.15 143.221C338.096 143.432 338.07 143.646 338.07 143.864V144.548C338.07 144.755 338.094 144.939 338.143 145.099C338.192 145.256 338.26 145.39 338.345 145.498C338.43 145.607 338.526 145.689 338.633 145.745C338.742 145.8 338.855 145.828 338.972 145.828C339.108 145.828 339.23 145.802 339.337 145.751C339.443 145.698 339.533 145.624 339.605 145.53C339.68 145.434 339.736 145.321 339.775 145.191C339.813 145.061 339.832 144.918 339.832 144.763C339.832 144.624 339.815 144.491 339.781 144.363C339.747 144.233 339.695 144.118 339.625 144.017C339.554 143.915 339.466 143.835 339.359 143.777C339.255 143.718 339.13 143.688 338.985 143.688C338.821 143.688 338.667 143.728 338.524 143.809C338.383 143.888 338.267 143.993 338.175 144.123C338.086 144.251 338.035 144.391 338.022 144.542L337.708 144.539C337.738 144.3 337.794 144.096 337.875 143.928C337.958 143.757 338.06 143.618 338.182 143.512C338.305 143.403 338.443 143.324 338.594 143.275C338.748 143.224 338.91 143.198 339.081 143.198C339.313 143.198 339.514 143.242 339.682 143.33C339.851 143.417 339.989 143.534 340.098 143.681C340.207 143.826 340.287 143.991 340.338 144.174C340.391 144.355 340.418 144.542 340.418 144.734C340.418 144.954 340.387 145.159 340.325 145.351C340.263 145.543 340.17 145.712 340.047 145.857C339.925 146.002 339.775 146.115 339.596 146.196C339.417 146.277 339.209 146.317 338.972 146.317C338.72 146.317 338.501 146.266 338.313 146.164C338.125 146.059 337.97 145.921 337.846 145.748C337.722 145.575 337.629 145.383 337.568 145.172C337.506 144.961 337.475 144.747 337.475 144.529V144.251C337.475 143.922 337.508 143.6 337.574 143.285C337.64 142.969 337.754 142.683 337.916 142.427C338.08 142.171 338.308 141.968 338.598 141.816C338.888 141.665 339.258 141.589 339.708 141.589ZM342.993 144.427H341.749V143.925H342.993C343.234 143.925 343.429 143.886 343.579 143.809C343.728 143.733 343.837 143.626 343.905 143.489C343.975 143.353 344.01 143.197 344.01 143.022C344.01 142.862 343.975 142.712 343.905 142.571C343.837 142.431 343.728 142.318 343.579 142.232C343.429 142.145 343.234 142.101 342.993 142.101H341.893V146.253H341.275V141.596H342.993C343.345 141.596 343.642 141.656 343.886 141.778C344.129 141.9 344.313 142.068 344.439 142.283C344.565 142.497 344.628 142.741 344.628 143.016C344.628 143.315 344.565 143.569 344.439 143.781C344.313 143.992 344.129 144.153 343.886 144.264C343.642 144.372 343.345 144.427 342.993 144.427ZM345.603 141.596H346.202L347.728 145.393L349.25 141.596H349.852L347.958 146.253H347.491L345.603 141.596ZM345.408 141.596H345.936L346.023 144.436V146.253H345.408V141.596ZM349.516 141.596H350.044V146.253H349.43V144.436L349.516 141.596Z" fill="#717172"/>
<line x1="352.995" y1="156.785" x2="174.792" y2="156.785" stroke="#242424" stroke-width="0.412508"/>
<line x1="352.995" y1="184.836" x2="174.792" y2="184.836" stroke="#242424" stroke-width="0.412508"/>
<line x1="352.995" y1="213.711" x2="174.792" y2="213.711" stroke="#242424" stroke-width="0.412508"/>
<path d="M366.122 156.009H366.544C366.751 156.009 366.921 155.975 367.056 155.906C367.192 155.836 367.294 155.741 367.36 155.622C367.428 155.5 367.462 155.364 367.462 155.212C367.462 155.033 367.432 154.883 367.372 154.761C367.313 154.639 367.223 154.548 367.104 154.486C366.984 154.424 366.833 154.393 366.65 154.393C366.483 154.393 366.336 154.426 366.208 154.492C366.082 154.556 365.983 154.648 365.911 154.767C365.84 154.887 365.805 155.028 365.805 155.19H365.213C365.213 154.953 365.273 154.738 365.392 154.544C365.512 154.349 365.679 154.195 365.895 154.08C366.112 153.964 366.364 153.907 366.65 153.907C366.931 153.907 367.177 153.957 367.388 154.057C367.6 154.155 367.764 154.303 367.881 154.499C367.998 154.693 368.057 154.935 368.057 155.225C368.057 155.342 368.029 155.468 367.974 155.602C367.921 155.735 367.836 155.858 367.721 155.973C367.608 156.089 367.461 156.184 367.28 156.258C367.098 156.331 366.881 156.367 366.627 156.367H366.122V156.009ZM366.122 156.495V156.14H366.627C366.924 156.14 367.169 156.175 367.363 156.245C367.557 156.316 367.709 156.41 367.82 156.527C367.933 156.644 368.012 156.773 368.057 156.914C368.104 157.053 368.127 157.191 368.127 157.33C368.127 157.547 368.09 157.74 368.015 157.909C367.943 158.077 367.84 158.22 367.705 158.338C367.573 158.455 367.417 158.543 367.238 158.603C367.059 158.663 366.864 158.693 366.653 158.693C366.45 158.693 366.259 158.664 366.08 158.606C365.903 158.549 365.746 158.466 365.61 158.357C365.473 158.246 365.367 158.11 365.29 157.95C365.213 157.788 365.175 157.604 365.175 157.397H365.767C365.767 157.559 365.802 157.701 365.872 157.823C365.945 157.944 366.047 158.039 366.179 158.107C366.314 158.173 366.471 158.206 366.653 158.206C366.834 158.206 366.99 158.175 367.12 158.114C367.252 158.05 367.353 157.954 367.424 157.826C367.496 157.698 367.532 157.537 367.532 157.343C367.532 157.149 367.492 156.99 367.411 156.866C367.33 156.74 367.215 156.647 367.065 156.588C366.918 156.526 366.744 156.495 366.544 156.495H366.122ZM371.867 155.929V156.639C371.867 157.021 371.833 157.343 371.765 157.605C371.696 157.867 371.598 158.078 371.47 158.238C371.342 158.398 371.188 158.515 371.007 158.587C370.827 158.657 370.625 158.693 370.399 158.693C370.22 158.693 370.054 158.67 369.903 158.625C369.751 158.581 369.615 158.509 369.493 158.411C369.374 158.311 369.272 158.181 369.186 158.021C369.101 157.861 369.036 157.667 368.991 157.439C368.946 157.21 368.924 156.944 368.924 156.639V155.929C368.924 155.547 368.958 155.227 369.026 154.969C369.097 154.711 369.196 154.504 369.324 154.348C369.452 154.191 369.605 154.078 369.785 154.009C369.966 153.941 370.168 153.907 370.392 153.907C370.574 153.907 370.74 153.929 370.891 153.974C371.045 154.017 371.181 154.086 371.301 154.182C371.42 154.276 371.522 154.402 371.605 154.56C371.69 154.715 371.755 154.906 371.8 155.132C371.845 155.358 371.867 155.624 371.867 155.929ZM371.272 156.735V155.83C371.272 155.621 371.259 155.437 371.234 155.279C371.21 155.119 371.175 154.983 371.128 154.87C371.081 154.757 371.021 154.665 370.949 154.595C370.879 154.524 370.796 154.473 370.703 154.441C370.611 154.407 370.508 154.39 370.392 154.39C370.252 154.39 370.127 154.417 370.018 154.47C369.909 154.521 369.818 154.603 369.743 154.716C369.67 154.829 369.615 154.978 369.577 155.161C369.538 155.344 369.519 155.567 369.519 155.83V156.735C369.519 156.944 369.531 157.128 369.554 157.288C369.58 157.448 369.617 157.587 369.666 157.704C369.715 157.819 369.775 157.914 369.845 157.989C369.916 158.064 369.997 158.119 370.088 158.155C370.182 158.189 370.286 158.206 370.399 158.206C370.544 158.206 370.671 158.179 370.779 158.123C370.888 158.068 370.979 157.981 371.051 157.864C371.126 157.745 371.181 157.592 371.218 157.407C371.254 157.219 371.272 156.995 371.272 156.735ZM373.23 157.925V158.402C373.23 158.596 373.181 158.8 373.083 159.016C372.985 159.233 372.847 159.415 372.67 159.56L372.334 159.326C372.402 159.232 372.46 159.136 372.507 159.038C372.554 158.942 372.589 158.842 372.612 158.737C372.638 158.635 372.651 158.526 372.651 158.411V157.925H373.23ZM377.069 157.061V157.547H373.703V157.199L375.789 153.971H376.272L375.754 154.905L374.375 157.061H377.069ZM376.419 153.971V158.629H375.827V153.971H376.419ZM378.377 153.971V158.629H377.76V153.971H378.377ZM381.189 153.971L379.254 156.143L378.166 157.272L378.064 156.613L378.883 155.711L380.447 153.971H381.189ZM380.594 158.629L378.87 156.357L379.238 155.868L381.33 158.629H380.594Z" fill="#B5B5B5"/>
<path d="M366.122 184.159H366.544C366.751 184.159 366.921 184.125 367.056 184.057C367.192 183.986 367.294 183.891 367.36 183.772C367.428 183.65 367.462 183.514 367.462 183.363C367.462 183.183 367.432 183.033 367.372 182.911C367.313 182.79 367.223 182.698 367.104 182.636C366.984 182.574 366.833 182.544 366.65 182.544C366.483 182.544 366.336 182.577 366.208 182.643C366.082 182.707 365.983 182.798 365.911 182.918C365.84 183.037 365.805 183.178 365.805 183.34H365.213C365.213 183.103 365.273 182.888 365.392 182.694C365.512 182.5 365.679 182.345 365.895 182.23C366.112 182.115 366.364 182.057 366.65 182.057C366.931 182.057 367.177 182.107 367.388 182.208C367.6 182.306 367.764 182.453 367.881 182.649C367.998 182.843 368.057 183.085 368.057 183.375C368.057 183.493 368.029 183.618 367.974 183.753C367.921 183.885 367.836 184.009 367.721 184.124C367.608 184.239 367.461 184.334 367.28 184.409C367.098 184.481 366.881 184.517 366.627 184.517H366.122V184.159ZM366.122 184.645V184.29H366.627C366.924 184.29 367.169 184.325 367.363 184.396C367.557 184.466 367.709 184.56 367.82 184.677C367.933 184.795 368.012 184.924 368.057 185.064C368.104 185.203 368.127 185.342 368.127 185.48C368.127 185.698 368.09 185.891 368.015 186.059C367.943 186.228 367.84 186.371 367.705 186.488C367.573 186.605 367.417 186.694 367.238 186.753C367.059 186.813 366.864 186.843 366.653 186.843C366.45 186.843 366.259 186.814 366.08 186.757C365.903 186.699 365.746 186.616 365.61 186.507C365.473 186.396 365.367 186.261 365.29 186.101C365.213 185.939 365.175 185.754 365.175 185.547H365.767C365.767 185.71 365.802 185.851 365.872 185.973C365.945 186.094 366.047 186.189 366.179 186.258C366.314 186.324 366.471 186.357 366.653 186.357C366.834 186.357 366.99 186.326 367.12 186.264C367.252 186.2 367.353 186.104 367.424 185.976C367.496 185.848 367.532 185.687 367.532 185.493C367.532 185.299 367.492 185.14 367.411 185.016C367.33 184.891 367.215 184.798 367.065 184.738C366.918 184.676 366.744 184.645 366.544 184.645H366.122ZM371.867 184.079V184.789C371.867 185.171 371.833 185.493 371.765 185.755C371.696 186.018 371.598 186.229 371.47 186.389C371.342 186.549 371.188 186.665 371.007 186.737C370.827 186.808 370.625 186.843 370.399 186.843C370.22 186.843 370.054 186.821 369.903 186.776C369.751 186.731 369.615 186.66 369.493 186.562C369.374 186.461 369.272 186.331 369.186 186.171C369.101 186.011 369.036 185.817 368.991 185.589C368.946 185.361 368.924 185.094 368.924 184.789V184.079C368.924 183.697 368.958 183.377 369.026 183.119C369.097 182.861 369.196 182.654 369.324 182.499C369.452 182.341 369.605 182.228 369.785 182.16C369.966 182.091 370.168 182.057 370.392 182.057C370.574 182.057 370.74 182.08 370.891 182.124C371.045 182.167 371.181 182.236 371.301 182.332C371.42 182.426 371.522 182.552 371.605 182.71C371.69 182.866 371.755 183.056 371.8 183.283C371.845 183.509 371.867 183.774 371.867 184.079ZM371.272 184.885V183.98C371.272 183.771 371.259 183.587 371.234 183.43C371.21 183.27 371.175 183.133 371.128 183.02C371.081 182.907 371.021 182.815 370.949 182.745C370.879 182.675 370.796 182.624 370.703 182.592C370.611 182.557 370.508 182.54 370.392 182.54C370.252 182.54 370.127 182.567 370.018 182.62C369.909 182.672 369.818 182.754 369.743 182.867C369.67 182.98 369.615 183.128 369.577 183.311C369.538 183.495 369.519 183.718 369.519 183.98V184.885C369.519 185.094 369.531 185.279 369.554 185.439C369.58 185.599 369.617 185.737 369.666 185.855C369.715 185.97 369.775 186.065 369.845 186.139C369.916 186.214 369.997 186.269 370.088 186.306C370.182 186.34 370.286 186.357 370.399 186.357C370.544 186.357 370.671 186.329 370.779 186.274C370.888 186.218 370.979 186.132 371.051 186.014C371.126 185.895 371.181 185.743 371.218 185.557C371.254 185.369 371.272 185.145 371.272 184.885ZM373.23 186.075V186.552C373.23 186.746 373.181 186.951 373.083 187.166C372.985 187.384 372.847 187.565 372.67 187.71L372.334 187.476C372.402 187.383 372.46 187.287 372.507 187.189C372.554 187.093 372.589 186.992 372.612 186.888C372.638 186.785 372.651 186.677 372.651 186.562V186.075H373.23ZM377.069 185.212V185.698H373.703V185.349L375.789 182.121H376.272L375.754 183.055L374.375 185.212H377.069ZM376.419 182.121V186.779H375.827V182.121H376.419ZM378.377 182.121V186.779H377.76V182.121H378.377ZM381.189 182.121L379.254 184.293L378.166 185.423L378.064 184.764L378.883 183.862L380.447 182.121H381.189ZM380.594 186.779L378.87 184.508L379.238 184.018L381.33 186.779H380.594Z" fill="#B5B5B5"/>
<path d="M366.122 212.309H366.544C366.751 212.309 366.921 212.275 367.056 212.207C367.192 212.137 367.294 212.042 367.36 211.922C367.428 211.801 367.462 211.664 367.462 211.513C367.462 211.334 367.432 211.183 367.372 211.062C367.313 210.94 367.223 210.848 367.104 210.787C366.984 210.725 366.833 210.694 366.65 210.694C366.483 210.694 366.336 210.727 366.208 210.793C366.082 210.857 365.983 210.949 365.911 211.068C365.84 211.188 365.805 211.328 365.805 211.49H365.213C365.213 211.254 365.273 211.038 365.392 210.844C365.512 210.65 365.679 210.495 365.895 210.38C366.112 210.265 366.364 210.208 366.65 210.208C366.931 210.208 367.177 210.258 367.388 210.358C367.6 210.456 367.764 210.603 367.881 210.799C367.998 210.993 368.057 211.236 368.057 211.526C368.057 211.643 368.029 211.769 367.974 211.903C367.921 212.035 367.836 212.159 367.721 212.274C367.608 212.389 367.461 212.484 367.28 212.559C367.098 212.631 366.881 212.668 366.627 212.668H366.122V212.309ZM366.122 212.796V212.44H366.627C366.924 212.44 367.169 212.476 367.363 212.546C367.557 212.616 367.709 212.71 367.82 212.828C367.933 212.945 368.012 213.074 368.057 213.215C368.104 213.353 368.127 213.492 368.127 213.631C368.127 213.848 368.09 214.041 368.015 214.21C367.943 214.378 367.84 214.521 367.705 214.638C367.573 214.756 367.417 214.844 367.238 214.904C367.059 214.963 366.864 214.993 366.653 214.993C366.45 214.993 366.259 214.965 366.08 214.907C365.903 214.849 365.746 214.766 365.61 214.657C365.473 214.547 365.367 214.411 365.29 214.251C365.213 214.089 365.175 213.905 365.175 213.698H365.767C365.767 213.86 365.802 214.002 365.872 214.123C365.945 214.245 366.047 214.34 366.179 214.408C366.314 214.474 366.471 214.507 366.653 214.507C366.834 214.507 366.99 214.476 367.12 214.414C367.252 214.35 367.353 214.254 367.424 214.126C367.496 213.998 367.532 213.837 367.532 213.643C367.532 213.449 367.492 213.29 367.411 213.167C367.33 213.041 367.215 212.948 367.065 212.888C366.918 212.826 366.744 212.796 366.544 212.796H366.122ZM371.867 212.229V212.94C371.867 213.321 371.833 213.643 371.765 213.906C371.696 214.168 371.598 214.379 371.47 214.539C371.342 214.699 371.188 214.815 371.007 214.888C370.827 214.958 370.625 214.993 370.399 214.993C370.22 214.993 370.054 214.971 369.903 214.926C369.751 214.881 369.615 214.81 369.493 214.712C369.374 214.612 369.272 214.481 369.186 214.322C369.101 214.162 369.036 213.967 368.991 213.739C368.946 213.511 368.924 213.245 368.924 212.94V212.229C368.924 211.848 368.958 211.528 369.026 211.27C369.097 211.012 369.196 210.805 369.324 210.649C369.452 210.491 369.605 210.378 369.785 210.31C369.966 210.242 370.168 210.208 370.392 210.208C370.574 210.208 370.74 210.23 370.891 210.275C371.045 210.317 371.181 210.387 371.301 210.483C371.42 210.577 371.522 210.702 371.605 210.86C371.69 211.016 371.755 211.207 371.8 211.433C371.845 211.659 371.867 211.924 371.867 212.229ZM371.272 213.036V212.13C371.272 211.921 371.259 211.738 371.234 211.58C371.21 211.42 371.175 211.284 371.128 211.17C371.081 211.057 371.021 210.966 370.949 210.895C370.879 210.825 370.796 210.774 370.703 210.742C370.611 210.708 370.508 210.691 370.392 210.691C370.252 210.691 370.127 210.717 370.018 210.771C369.909 210.822 369.818 210.904 369.743 211.017C369.67 211.13 369.615 211.278 369.577 211.462C369.538 211.645 369.519 211.868 369.519 212.13V213.036C369.519 213.245 369.531 213.429 369.554 213.589C369.58 213.749 369.617 213.888 369.666 214.005C369.715 214.12 369.775 214.215 369.845 214.29C369.916 214.364 369.997 214.42 370.088 214.456C370.182 214.49 370.286 214.507 370.399 214.507C370.544 214.507 370.671 214.479 370.779 214.424C370.888 214.368 370.979 214.282 371.051 214.165C371.126 214.045 371.181 213.893 371.218 213.707C371.254 213.52 371.272 213.296 371.272 213.036ZM373.23 214.226V214.702C373.23 214.896 373.181 215.101 373.083 215.316C372.985 215.534 372.847 215.715 372.67 215.86L372.334 215.627C372.402 215.533 372.46 215.437 372.507 215.339C372.554 215.243 372.589 215.143 372.612 215.038C372.638 214.936 372.651 214.827 372.651 214.712V214.226H373.23ZM377.069 213.362V213.848H373.703V213.499L375.789 210.272H376.272L375.754 211.206L374.375 213.362H377.069ZM376.419 210.272V214.929H375.827V210.272H376.419ZM378.377 210.272V214.929H377.76V210.272H378.377ZM381.189 210.272L379.254 212.444L378.166 213.573L378.064 212.914L378.883 212.012L380.447 210.272H381.189ZM380.594 214.929L378.87 212.658L379.238 212.169L381.33 214.929H380.594Z" fill="#B5B5B5"/>
<path d="M174.844 242.986L172.846 242.114V271.764H352.909V157.087L351.66 158.395L349.412 168.424L348.163 170.168L345.916 169.296L343.418 164.936L341.92 165.372L339.672 174.964L338.174 181.069H336.176L334.178 175.4L332.839 174.964H331.431L328.684 188.918L327.935 189.79L326.686 190.662L325.437 187.609L323.439 169.296L322.19 167.116L320.942 167.988L318.444 182.813L316.946 184.557L314.199 181.941L312.7 179.761H310.702L308.705 188.045L307.456 191.098L304.958 191.97L302.961 196.33L301.712 197.202L300.463 196.33L297.716 184.993L295.468 184.121L292.721 195.894L291.722 197.638L290.224 197.202L287.227 189.79L284.979 189.354L283.231 184.557L281.982 181.069L280.734 180.197L279.735 181.505L277.237 198.074L276.488 200.69L275.489 201.127L274.24 196.766L271.743 173.656L270.994 171.912H270.494L269.246 173.22L267.248 186.301L266.249 188.918L264.251 189.79L261.753 198.51L261.004 199.818H259.755L258.257 198.074L256.759 194.15L255.51 193.278L253.512 195.458L252.263 202.871L251.015 205.487L249.766 206.359L247.518 204.179L245.77 201.563L244.022 201.127L243.273 199.818L241.275 195.022L240.026 193.714L238.777 195.022L236.779 213.772L235.281 220.748H233.783L231.535 215.952L230.286 215.08L228.288 214.644L226.54 221.184L224.792 224.672L223.793 225.108L221.795 219.876L219.547 217.696L218.049 218.568L215.052 238.189L213.803 239.062L211.805 235.573L209.058 232.085H207.81L206.311 229.033L204.063 227.725L202.565 229.033L200.567 239.934L198.569 242.114L197.32 242.986L195.572 244.294L192.825 245.166L191.327 242.986L189.579 238.189L187.331 237.317L185.333 234.701L183.585 232.957L182.586 233.393L181.587 236.881L179.589 245.166L178.34 246.91L176.842 246.474L174.844 242.986Z" fill="url(#paint0_linear_404_29419)"/>
<path d="M352.908 157.087C350.336 157.087 350.336 171.039 347.764 171.039C345.191 171.039 345.299 165.184 342.619 165.184C339.94 165.184 340.154 182.375 337.475 182.375C334.795 182.375 335.224 175.474 332.33 175.474C329.436 175.474 330.186 192.241 327.185 192.241C324.184 192.241 324.613 167.551 322.041 167.551C319.468 167.551 319.683 185.564 316.896 185.564C314.109 185.564 314.538 180.631 311.751 180.631C308.965 180.631 309.393 192.964 306.607 192.964C303.82 192.964 304.141 198.943 301.462 198.943C298.782 198.943 298.997 185.49 296.317 185.49C293.638 185.49 293.959 199.641 291.173 199.641C288.386 199.641 289.029 191.095 286.028 191.095C283.027 191.095 283.563 181.578 280.883 181.578C278.204 181.578 278.525 203.303 275.739 203.303C272.952 203.303 273.381 172.285 270.594 172.285C267.807 172.285 268.129 190.821 265.449 190.821C262.77 190.821 263.306 201.908 260.305 201.908C257.304 201.908 258.054 195.181 255.16 195.181C252.266 195.181 253.017 208.884 250.016 208.884C247.015 208.884 247.765 203.602 244.871 203.602C241.977 203.602 242.513 195.605 239.726 195.605C236.94 195.605 237.368 224.331 234.582 224.331C231.795 224.331 232.438 217.305 229.437 217.305C226.436 217.305 226.865 228.293 224.292 228.293C221.72 228.293 222.042 220.445 219.148 220.445C216.254 220.445 216.683 243.117 214.003 243.117C211.324 243.117 211.859 236.29 208.858 236.29C205.857 236.29 206.608 231.332 203.714 231.332C200.82 231.332 201.356 246.53 198.569 246.53C195.782 246.53 196.425 249.719 193.424 249.719C190.423 249.719 191.281 241.323 188.28 241.323C185.279 241.323 185.707 236.838 183.135 236.838C180.563 236.838 180.563 251.413 177.991 251.413C175.418 251.413 175.633 246.281 172.846 246.281" stroke="#5A7CFF" stroke-width="1.65003"/>
<g clip-path="url(#clip8_404_29419)">
<path d="M210.765 8.11389H344.098C342.816 8.48082 341.917 9.63306 341.873 10.9659L341.855 11.5001C341.855 19.7173 335.194 26.3786 326.977 26.3786H227.887C219.669 26.3786 213.008 19.7173 213.008 11.5001L212.99 10.9659C212.946 9.63306 212.047 8.48082 210.765 8.11389Z" fill="black"/>
<path opacity="0.35" d="M370.582 21.5079C370.582 20.7794 371.173 20.1888 371.901 20.1888H382.048C382.777 20.1888 383.367 20.7794 383.367 21.5079V25.1609C383.367 25.8894 382.777 26.48 382.048 26.48H371.901C371.173 26.48 370.582 25.8894 370.582 25.1609V21.5079Z" stroke="white" stroke-width="0.608825"/>
<path opacity="0.4" d="M384.281 22.1168V24.5521C384.77 24.3459 385.089 23.8661 385.089 23.3345C385.089 22.8029 384.77 22.3231 384.281 22.1168Z" fill="white"/>
<path d="M371.495 21.9138C371.495 21.4655 371.859 21.1021 372.307 21.1021H381.642C382.091 21.1021 382.454 21.4655 382.454 21.9138V24.755C382.454 25.2033 382.091 25.5668 381.642 25.5668H372.307C371.859 25.5668 371.495 25.2033 371.495 24.755V21.9138Z" fill="white"/>
<path fill-rule="evenodd" clip-rule="evenodd" d="M362.564 21.2693C363.913 21.2694 365.211 21.7877 366.188 22.7173C366.262 22.7891 366.38 22.7882 366.452 22.7153L367.156 22.005C367.193 21.968 367.213 21.9179 367.213 21.8658C367.213 21.8137 367.192 21.7639 367.154 21.7273C364.588 19.268 360.54 19.268 357.973 21.7273C357.936 21.7639 357.915 21.8137 357.915 21.8658C357.914 21.9179 357.935 21.968 357.972 22.005L358.676 22.7153C358.748 22.7883 358.866 22.7892 358.939 22.7173C359.917 21.7877 361.215 21.2693 362.564 21.2693ZM362.564 23.5802C363.305 23.5802 364.02 23.8557 364.569 24.3532C364.644 24.4238 364.761 24.4223 364.833 24.3498L365.536 23.6395C365.573 23.6022 365.594 23.5517 365.593 23.4992C365.593 23.4466 365.571 23.3965 365.533 23.36C363.86 21.8036 361.269 21.8036 359.596 23.36C359.558 23.3965 359.537 23.4467 359.536 23.4992C359.536 23.5517 359.556 23.6023 359.593 23.6395L360.296 24.3498C360.369 24.4223 360.486 24.4238 360.56 24.3532C361.109 23.856 361.823 23.5805 362.564 23.5802ZM363.972 25.135C363.973 25.1877 363.953 25.2385 363.915 25.2754L362.699 26.5026C362.663 26.5386 362.615 26.5589 362.564 26.5589C362.513 26.5589 362.465 26.5386 362.429 26.5026L361.213 25.2754C361.175 25.2385 361.155 25.1877 361.156 25.135C361.157 25.0823 361.18 25.0325 361.219 24.9972C361.995 24.3403 363.133 24.3403 363.909 24.9972C363.948 25.0325 363.971 25.0824 363.972 25.135Z" fill="white"/>
<path fill-rule="evenodd" clip-rule="evenodd" d="M354.245 20.0873H353.637C353.3 20.0873 353.028 20.3599 353.028 20.6961V25.9726C353.028 26.3088 353.3 26.5814 353.637 26.5814H354.245C354.582 26.5814 354.854 26.3088 354.854 25.9726V20.6961C354.854 20.3599 354.582 20.0873 354.245 20.0873ZM350.795 21.5079H351.404C351.74 21.5079 352.013 21.7805 352.013 22.1167V25.9726C352.013 26.3089 351.74 26.5814 351.404 26.5814H350.795C350.459 26.5814 350.186 26.3089 350.186 25.9726V22.1167C350.186 21.7805 350.459 21.5079 350.795 21.5079ZM348.563 22.9284H347.954C347.618 22.9284 347.345 23.201 347.345 23.5373V25.9726C347.345 26.3088 347.618 26.5814 347.954 26.5814H348.563C348.899 26.5814 349.172 26.3088 349.172 25.9726V23.5373C349.172 23.201 348.899 22.9284 348.563 22.9284ZM345.722 24.1461H345.113C344.777 24.1461 344.504 24.4187 344.504 24.7549V25.9726C344.504 26.3088 344.777 26.5814 345.113 26.5814H345.722C346.058 26.5814 346.331 26.3088 346.331 25.9726V24.7549C346.331 24.4187 346.058 24.1461 345.722 24.1461Z" fill="white"/>
<path d="M183.564 26.5347C185.2 26.5347 186.172 25.255 186.172 23.0878C186.172 22.2718 186.016 21.5851 185.717 21.0544C185.285 20.2295 184.54 19.7836 183.599 19.7836C182.199 19.7836 181.209 20.7245 181.209 22.0444C181.209 23.284 182.101 24.1848 183.327 24.1848C184.081 24.1848 184.692 23.8325 184.995 23.2216H185.008C185.008 23.2216 185.026 23.2216 185.031 23.2216C185.04 23.2216 185.071 23.2216 185.071 23.2216C185.071 24.6931 184.513 25.5716 183.573 25.5716C183.02 25.5716 182.592 25.2683 182.444 24.7823H181.298C181.49 25.8391 182.386 26.5347 183.564 26.5347ZM183.604 23.2706C182.864 23.2706 182.337 22.7445 182.337 22.0087C182.337 21.2908 182.89 20.7423 183.608 20.7423C184.326 20.7423 184.879 21.2997 184.879 22.0265C184.879 22.7445 184.34 23.2706 183.604 23.2706Z" fill="white"/>
<path d="M188.054 26.4723C188.478 26.4723 188.768 26.1691 188.768 25.7678C188.768 25.362 188.478 25.0632 188.054 25.0632C187.635 25.0632 187.341 25.362 187.341 25.7678C187.341 26.1691 187.635 26.4723 188.054 26.4723ZM188.054 23.1279C188.478 23.1279 188.768 22.8292 188.768 22.4279C188.768 22.0221 188.478 21.7233 188.054 21.7233C187.635 21.7233 187.341 22.0221 187.341 22.4279C187.341 22.8292 187.635 23.1279 188.054 23.1279Z" fill="white"/>
<path d="M192.942 26.3787H194.043V25.1792H194.913V24.2071H194.043V19.9441H192.42C191.283 21.6564 190.378 23.0878 189.798 24.1536V25.1792H192.942V26.3787ZM190.864 24.1669C191.613 22.847 192.282 21.7902 192.897 20.8805H192.959V24.2338H190.864V24.1669Z" fill="white"/>
<path d="M197.365 26.3787H198.516V19.9441H197.37L195.689 21.1213V22.2272L197.29 21.1035H197.365V26.3787Z" fill="white"/>
</g>
</g>
</g>
<defs>
<filter id="filter0_dddddd_404_29419" x="133.809" y="-19.0331" width="377.656" height="599.585" filterUnits="userSpaceOnUse" color-interpolation-filters="sRGB">
<feFlood flood-opacity="0" result="BackgroundImageFix"/>
<feColorMatrix in="SourceAlpha" type="matrix" values="0 0 0 0 0 0 0 0 0 0 0 0 0 0 0 0 0 0 127 0" result="hardAlpha"/>
<feOffset dx="45.0551" dy="45.0551"/>
<feGaussianBlur stdDeviation="36.0441"/>
<feColorMatrix type="matrix" values="0 0 0 0 0 0 0 0 0 0 0 0 0 0 0 0 0 0 0.2 0"/>
<feBlend mode="normal" in2="BackgroundImageFix" result="effect1_dropShadow_404_29419"/>
<feColorMatrix in="SourceAlpha" type="matrix" values="0 0 0 0 0 0 0 0 0 0 0 0 0 0 0 0 0 0 127 0" result="hardAlpha"/>
<feOffset dx="18.0221" dy="37.6459"/>
<feGaussianBlur stdDeviation="15.0584"/>
<feColorMatrix type="matrix" values="0 0 0 0 0 0 0 0 0 0 0 0 0 0 0 0 0 0 0.2 0"/>
<feBlend mode="normal" in2="effect1_dropShadow_404_29419" result="effect2_dropShadow_404_29419"/>
<feColorMatrix in="SourceAlpha" type="matrix" values="0 0 0 0 0 0 0 0 0 0 0 0 0 0 0 0 0 0 127 0" result="hardAlpha"/>
<feOffset dy="20.1273"/>
<feGaussianBlur stdDeviation="8.05092"/>
<feColorMatrix type="matrix" values="0 0 0 0 0 0 0 0 0 0 0 0 0 0 0 0 0 0 0.118705 0"/>
<feBlend mode="normal" in2="effect2_dropShadow_404_29419" result="effect3_dropShadow_404_29419"/>
<feColorMatrix in="SourceAlpha" type="matrix" values="0 0 0 0 0 0 0 0 0 0 0 0 0 0 0 0 0 0 127 0" result="hardAlpha"/>
<feOffset dy="11.2832"/>
<feGaussianBlur stdDeviation="4.51328"/>
<feColorMatrix type="matrix" values="0 0 0 0 0 0 0 0 0 0 0 0 0 0 0 0 0 0 0.0977185 0"/>
<feBlend mode="normal" in2="effect3_dropShadow_404_29419" result="effect4_dropShadow_404_29419"/>
<feColorMatrix in="SourceAlpha" type="matrix" values="0 0 0 0 0 0 0 0 0 0 0 0 0 0 0 0 0 0 127 0" result="hardAlpha"/>
<feOffset dy="5.99242"/>
<feGaussianBlur stdDeviation="2.39697"/>
<feColorMatrix type="matrix" values="0 0 0 0 0 0 0 0 0 0 0 0 0 0 0 0 0 0 0.05 0"/>
<feBlend mode="normal" in2="effect4_dropShadow_404_29419" result="effect5_dropShadow_404_29419"/>
<feColorMatrix in="SourceAlpha" type="matrix" values="0 0 0 0 0 0 0 0 0 0 0 0 0 0 0 0 0 0 127 0" result="hardAlpha"/>
<feOffset dy="2.49358"/>
<feGaussianBlur stdDeviation="0.997433"/>
<feColorMatrix type="matrix" values="0 0 0 0 0 0 0 0 0 0 0 0 0 0 0 0 0 0 0.0567624 0"/>
<feBlend mode="normal" in2="effect5_dropShadow_404_29419" result="effect6_dropShadow_404_29419"/>
<feBlend mode="normal" in="SourceGraphic" in2="effect6_dropShadow_404_29419" result="shape"/>
</filter>
<filter id="filter1_i_404_29419" x="160.842" y="8" width="236.779" height="458.708" filterUnits="userSpaceOnUse" color-interpolation-filters="sRGB">
<feFlood flood-opacity="0" result="BackgroundImageFix"/>
<feBlend mode="normal" in="SourceGraphic" in2="BackgroundImageFix" result="shape"/>
<feColorMatrix in="SourceAlpha" type="matrix" values="0 0 0 0 0 0 0 0 0 0 0 0 0 0 0 0 0 0 127 0" result="hardAlpha"/>
<feOffset dx="3.30006" dy="3.30006"/>
<feGaussianBlur stdDeviation="1.65003"/>
<feComposite in2="hardAlpha" operator="arithmetic" k2="-1" k3="1"/>
<feColorMatrix type="matrix" values="0 0 0 0 0.809408 0 0 0 0 0.809408 0 0 0 0 0.809408 0 0 0 0.25 0"/>
<feBlend mode="normal" in2="shape" result="effect1_innerShadow_404_29419"/>
</filter>
<linearGradient id="paint0_linear_404_29419" x1="262.877" y1="157.087" x2="262.877" y2="271.764" gradientUnits="userSpaceOnUse">
<stop stop-color="#5679FF" stop-opacity="0.46"/>
<stop offset="1" stop-color="#5A7CFF" stop-opacity="0"/>
</linearGradient>
<clipPath id="clip0_404_29419">
<rect width="555" height="221" fill="white"/>
</clipPath>
<clipPath id="clip1_404_29419">
<rect width="16.5003" height="16.5003" fill="white" transform="translate(365.668 39.408)"/>
</clipPath>
<clipPath id="clip2_404_29419">
<path d="M172.846 107.883C172.846 106.048 172.846 105.131 173.203 104.43C173.517 103.814 174.018 103.313 174.635 102.999C175.335 102.641 176.253 102.641 178.087 102.641H207.733V120.831H178.087C176.253 120.831 175.335 120.831 174.635 120.474C174.018 120.16 173.517 119.659 173.203 119.042C172.846 118.342 172.846 117.424 172.846 115.59V107.883Z" fill="white"/>
</clipPath>
<clipPath id="clip3_404_29419">
<path d="M207.733 102.641H242.62V120.831H207.733V102.641Z" fill="white"/>
</clipPath>
<clipPath id="clip4_404_29419">
<path d="M242.62 102.641H277.507V120.831H242.62V102.641Z" fill="white"/>
</clipPath>
<clipPath id="clip5_404_29419">
<path d="M277.507 102.641H312.394V120.831H277.507V102.641Z" fill="white"/>
</clipPath>
<clipPath id="clip6_404_29419">
<path d="M312.395 102.641H347.282V120.831H312.395V102.641Z" fill="white"/>
</clipPath>
<clipPath id="clip7_404_29419">
<path d="M347.281 102.641H376.927C378.762 102.641 379.679 102.641 380.38 102.999C380.996 103.313 381.498 103.814 381.812 104.43C382.169 105.131 382.169 106.048 382.169 107.883V115.59C382.169 117.424 382.169 118.342 381.812 119.042C381.498 119.659 380.996 120.16 380.38 120.474C379.679 120.831 378.762 120.831 376.927 120.831H347.281V102.641Z" fill="white"/>
</clipPath>
<clipPath id="clip8_404_29419">
<rect width="233.479" height="27.0344" fill="white" transform="translate(160.842 9.33154)"/>
</clipPath>
</defs>
</svg>
