<svg xmlns="http://www.w3.org/2000/svg" width="56" height="56" viewBox="0 0 56 56" fill="none">
  <path d="M48.7027 21.3501C49.0321 21.0546 49.2853 20.6839 49.4407 20.2696C49.5961 19.8552 49.6491 19.4094 49.5952 18.9701C49.5532 18.5675 49.3927 18.1864 49.1342 17.8749C48.8757 17.5634 48.5306 17.3356 48.1427 17.2201C47.8181 17.5156 47.568 17.8837 47.4129 18.2943C47.2578 18.7049 47.202 19.1464 47.2502 19.5826C47.2911 19.9876 47.4508 20.3714 47.7093 20.6859C47.9677 21.0004 48.3133 21.2315 48.7027 21.3501ZM49.7702 22.3126C49.4129 22.6111 49.1327 22.9911 48.953 23.4205C48.7733 23.8499 48.6995 24.3162 48.7377 24.7801C49.1909 24.8199 49.6475 24.7632 50.0772 24.6137C50.5069 24.4642 50.9001 24.2253 51.2308 23.9128C51.5615 23.6003 51.8222 23.2212 51.9958 22.8006C52.1693 22.38 52.2518 21.9274 52.2377 21.4726C51.7894 21.4122 51.3332 21.4565 50.9051 21.6023C50.4769 21.7481 50.0884 21.9912 49.7702 22.3126ZM48.3002 24.6926C48.4163 24.2743 48.4139 23.8319 48.2934 23.4147C48.1729 22.9976 47.939 22.6221 47.6177 22.3301C47.2962 22.0331 46.9001 21.8289 46.4717 21.7395C46.0432 21.6501 45.5985 21.6789 45.1852 21.8226C45.0628 22.2391 45.0603 22.6817 45.1779 23.0995C45.2956 23.5174 45.5285 23.8936 45.8502 24.1851C46.1752 24.4821 46.5743 24.6859 47.0055 24.7752C47.4366 24.8645 47.8839 24.836 48.3002 24.6926ZM48.3177 27.7201C47.8819 27.9949 47.516 28.3671 47.2488 28.8075C46.9815 29.2479 46.8202 29.7443 46.7777 30.2576C47.2588 30.409 47.7695 30.4418 48.2661 30.3535C48.7627 30.2651 49.2307 30.0581 49.6302 29.7501C50.0631 29.4724 50.427 29.0994 50.6938 28.6596C50.9607 28.2199 51.1236 27.7249 51.1702 27.2126C50.6895 27.0568 50.178 27.0215 49.6805 27.11C49.1831 27.1985 48.715 27.4081 48.3177 27.7201ZM46.3227 30.0651C46.5211 29.6309 46.5983 29.1511 46.5459 28.6766C46.4935 28.202 46.3136 27.7506 46.0252 27.3701C45.7395 26.992 45.3537 26.7015 44.9114 26.5314C44.4691 26.3613 43.988 26.3184 43.5227 26.4076C43.3143 26.8357 43.2254 27.3121 43.2655 27.7864C43.3055 28.2608 43.473 28.7156 43.7502 29.1026C44.0414 29.493 44.4388 29.7914 44.8949 29.962C45.3511 30.1327 45.8467 30.1685 46.3227 30.0651ZM46.8127 33.3376C46.2774 33.5451 45.7953 33.8696 45.4017 34.2875C45.008 34.7054 44.7128 35.206 44.5377 35.7526C44.9894 36.0431 45.5079 36.2133 46.0439 36.247C46.5799 36.2807 47.1156 36.1768 47.6002 35.9451C48.1354 35.7377 48.6175 35.4131 49.0111 34.9953C49.4048 34.5774 49.7 34.0768 49.8752 33.5301C49.4254 33.2348 48.9064 33.0618 48.3694 33.028C47.8324 32.9943 47.2959 33.101 46.8127 33.3376ZM41.8077 33.7226C41.9784 34.2089 42.2885 34.6341 42.6993 34.9453C43.1101 35.2565 43.6033 35.4399 44.1177 35.4726C44.4404 35.0392 44.6494 34.5319 44.7259 33.997C44.8023 33.4621 44.7436 32.9166 44.5552 32.4101C44.3813 31.9225 44.068 31.4967 43.6542 31.1856C43.2404 30.8745 42.7444 30.6918 42.2277 30.6601C41.9034 31.093 41.6947 31.6012 41.6212 32.137C41.5477 32.6728 41.6119 33.2185 41.8077 33.7226ZM43.7502 37.9926C43.1927 38.1369 42.6742 38.4033 42.2323 38.7725C41.7905 39.1418 41.4362 39.6047 41.1952 40.1276C41.5894 40.4831 42.072 40.7259 42.5923 40.8306C43.1127 40.9353 43.6517 40.898 44.1527 40.7226C44.7117 40.5826 45.2325 40.3199 45.6774 39.9537C46.1224 39.5874 46.4803 39.1268 46.7252 38.6051C46.3281 38.2484 45.8433 38.0037 45.3206 37.8961C44.7978 37.7885 44.2558 37.8218 43.7502 37.9926ZM39.7252 34.6851C39.3464 35.0814 39.0716 35.5652 38.925 36.0934C38.7785 36.6216 38.7648 37.1779 38.8852 37.7126C38.9834 38.2134 39.2265 38.6743 39.5842 39.0383C39.942 39.4023 40.3986 39.6532 40.8977 39.7601C41.2644 39.3594 41.5328 38.8788 41.6816 38.3563C41.8304 37.8339 41.8556 37.284 41.7552 36.7501C41.6587 36.2438 41.4145 35.7775 41.0532 35.4099C40.6918 35.0424 40.2297 34.7902 39.7252 34.6851ZM39.4627 42.2976C38.8434 42.2477 38.2209 42.3417 37.6441 42.5725C37.0672 42.8032 36.5516 43.1644 36.1377 43.6276C36.3413 44.1641 36.6993 44.6283 37.1665 44.9615C37.6337 45.2948 38.1891 45.4822 38.7627 45.5001C39.3833 45.548 40.0066 45.4512 40.5836 45.2173C41.1605 44.9835 41.6754 44.6191 42.0877 44.1526C41.8793 43.6207 41.5196 43.1615 41.0531 42.8318C40.5865 42.5022 40.0336 42.3164 39.4627 42.2976ZM34.8077 40.0576C34.6873 40.6182 34.7305 41.2016 34.9322 41.7383C35.1338 42.275 35.4854 42.7425 35.9452 43.0851C36.4896 42.7702 36.9553 42.3355 37.307 41.8141C37.6587 41.2926 37.8872 40.6979 37.9752 40.0751C38.0912 39.5146 38.0459 38.9326 37.8445 38.3968C37.6432 37.8609 37.2941 37.3931 36.8377 37.0476C36.2932 37.3626 35.8275 37.7972 35.4758 38.3187C35.1241 38.8402 34.8956 39.4348 34.8077 40.0576ZM33.8627 45.2376C33.1832 45.1808 32.4999 45.2842 31.8677 45.5395C31.2355 45.7948 30.6721 46.1949 30.2227 46.7076C30.4537 47.2857 30.8481 47.784 31.3579 48.1414C31.8676 48.4988 32.4704 48.6999 33.0927 48.7201C33.7742 48.7715 34.4584 48.6657 35.0925 48.4109C35.7267 48.156 36.2938 47.7589 36.7502 47.2501C36.518 46.6694 36.1208 46.1693 35.6077 45.8117C35.0945 45.454 34.4879 45.2545 33.8627 45.2376ZM32.2352 42.8051C32.3698 42.1901 32.3243 41.5493 32.1039 40.9595C31.8835 40.3698 31.4977 39.8561 30.9927 39.4801C30.3919 39.8199 29.8773 40.2933 29.4889 40.8639C29.1005 41.4344 28.8485 42.0866 28.7527 42.7701C28.6273 43.3877 28.6773 44.028 28.8968 44.6187C29.1164 45.2094 29.4968 45.7269 29.9952 46.1126C30.5947 45.767 31.1079 45.2897 31.4959 44.7168C31.8839 44.1438 32.1367 43.4901 32.2352 42.8051ZM8.75015 19.5826C8.80113 19.1436 8.74676 18.6987 8.59155 18.2848C8.43634 17.8709 8.18477 17.4999 7.85765 17.2026C7.46967 17.3181 7.12462 17.5459 6.86609 17.8574C6.60756 18.1689 6.44716 18.55 6.40515 18.9526C6.35124 19.3919 6.40423 19.8377 6.55962 20.2521C6.71502 20.6664 6.96821 21.0371 7.29765 21.3326C7.68448 21.2151 8.02832 20.9867 8.28652 20.6756C8.54472 20.3645 8.70593 19.9845 8.75015 19.5826ZM7.26265 24.7801C7.30084 24.3162 7.22698 23.8499 7.04729 23.4205C6.86761 22.9911 6.58736 22.6111 6.23015 22.3126C5.90449 21.9809 5.50438 21.7316 5.06306 21.5855C4.62174 21.4394 4.15193 21.4007 3.69265 21.4726C3.65447 21.9366 3.72833 22.4029 3.90801 22.8323C4.0877 23.2617 4.36795 23.6417 4.72515 23.9401C5.04911 24.2743 5.44903 24.5252 5.89085 24.6714C6.33268 24.8177 6.80331 24.855 7.26265 24.7801ZM7.70015 24.6926C8.11645 24.836 8.56368 24.8645 8.99482 24.7752C9.42596 24.6859 9.82506 24.4821 10.1502 24.1851C10.4718 23.8936 10.7047 23.5174 10.8224 23.0995C10.94 22.6817 10.9375 22.2391 10.8152 21.8226C10.4018 21.6789 9.95707 21.6501 9.52862 21.7395C9.10017 21.8289 8.70407 22.0331 8.38265 22.3301C8.06133 22.6221 7.82739 22.9976 7.70688 23.4147C7.58638 23.8319 7.58405 24.2743 7.70015 24.6926ZM9.22265 30.2576C9.18006 29.7443 9.01877 29.2479 8.75152 28.8075C8.48427 28.3671 8.11836 27.9949 7.68265 27.7201C7.28372 27.411 6.81494 27.2046 6.31754 27.1192C5.82015 27.0338 5.30937 27.0719 4.83015 27.2301C4.87922 27.7394 5.04334 28.2308 5.31012 28.6674C5.5769 29.1039 5.93936 29.4742 6.37015 29.7501C6.76962 30.0581 7.23757 30.2651 7.7342 30.3535C8.23083 30.4418 8.74146 30.409 9.22265 30.2576ZM9.67765 30.0651C10.1536 30.1685 10.6492 30.1327 11.1054 29.962C11.5615 29.7914 11.9589 29.493 12.2502 29.1026C12.5386 28.7222 12.7185 28.2707 12.7709 27.7962C12.8233 27.3217 12.7461 26.8418 12.5477 26.4076C12.0823 26.3184 11.6012 26.3613 11.1589 26.5314C10.7166 26.7015 10.3308 26.992 10.0452 27.3701C9.74534 27.7438 9.55277 28.192 9.48803 28.6667C9.4233 29.1414 9.48884 29.6248 9.67765 30.0651ZM11.4627 35.7526C11.2875 35.206 10.9923 34.7054 10.5986 34.2875C10.205 33.8696 9.72292 33.5451 9.18765 33.3376C8.70443 33.101 8.1679 32.9943 7.63089 33.028C7.09388 33.0618 6.57493 33.2348 6.12515 33.5301C6.30032 34.0768 6.59553 34.5774 6.98916 34.9953C7.38279 35.4131 7.86489 35.7377 8.40015 35.9451C8.88469 36.1768 9.42042 36.2807 9.95643 36.247C10.4924 36.2133 11.0109 36.0431 11.4627 35.7526ZM11.4452 32.3751C11.2567 32.8816 11.198 33.4271 11.2744 33.962C11.3509 34.4969 11.56 35.0042 11.8827 35.4376C12.397 35.4049 12.8903 35.2215 13.301 34.9103C13.7118 34.5991 14.0219 34.1739 14.1927 33.6876C14.3884 33.1835 14.4526 32.6378 14.3791 32.102C14.3056 31.5662 14.0969 31.058 13.7727 30.6251C13.2559 30.6568 12.7599 30.8395 12.3461 31.1506C11.9323 31.4617 11.619 31.8875 11.4452 32.3751ZM12.2502 37.9926C11.7445 37.8218 11.2025 37.7885 10.6797 37.8961C10.157 38.0037 9.6722 38.2484 9.27515 38.6051C9.52005 39.1268 9.87794 39.5874 10.3229 39.9537C10.7678 40.3199 11.2887 40.5826 11.8477 40.7226C12.3486 40.898 12.8876 40.9353 13.408 40.8306C13.9283 40.7259 14.4109 40.4831 14.8052 40.1276C14.5641 39.6047 14.2099 39.1418 13.768 38.7725C13.3261 38.4033 12.8076 38.1369 12.2502 37.9926ZM15.1027 39.7601C15.6017 39.6532 16.0583 39.4023 16.4161 39.0383C16.7738 38.6743 17.0169 38.2134 17.1152 37.7126C17.2355 37.1779 17.2219 36.6216 17.0753 36.0934C16.9287 35.5652 16.6539 35.0814 16.2752 34.6851C15.7706 34.7902 15.3085 35.0424 14.9472 35.4099C14.5858 35.7775 14.3416 36.2438 14.2452 36.7501C14.1447 37.284 14.1699 37.8339 14.3187 38.3563C14.4675 38.8788 14.7359 39.3594 15.1027 39.7601ZM19.8627 43.6276C19.4487 43.1644 18.9331 42.8032 18.3562 42.5725C17.7794 42.3417 17.1569 42.2477 16.5377 42.2976C15.9785 42.3076 15.434 42.4778 14.9687 42.788C14.5034 43.0982 14.1369 43.5354 13.9127 44.0476C14.3249 44.5141 14.8398 44.8785 15.4167 45.1123C15.9937 45.3462 16.617 45.443 17.2377 45.3951C17.7992 45.3858 18.3461 45.2139 18.812 44.9002C19.2778 44.5865 19.6428 44.1445 19.8627 43.6276ZM20.0552 43.0851C20.5149 42.7425 20.8665 42.275 21.0681 41.7383C21.2698 41.2016 21.313 40.6182 21.1927 40.0576C21.1144 39.4426 20.8993 38.853 20.5631 38.3321C20.227 37.8112 19.7783 37.3723 19.2502 37.0476C18.7937 37.3931 18.4446 37.8609 18.2433 38.3968C18.0419 38.9326 17.9966 39.5146 18.1127 40.0751C18.1909 40.6901 18.406 41.2798 18.7422 41.8007C19.0783 42.3216 19.527 42.7605 20.0552 43.0851ZM19.2502 47.2501C19.7048 47.762 20.2712 48.1625 20.9054 48.4204C21.5397 48.6784 22.2247 48.7869 22.9077 48.7376C23.5299 48.7174 24.1327 48.5163 24.6424 48.1589C25.1522 47.8015 25.5466 47.3032 25.7777 46.7251C25.3282 46.2124 24.7648 45.8123 24.1326 45.557C23.5004 45.3017 22.8171 45.1983 22.1377 45.2551C21.5144 45.2705 20.9092 45.4675 20.3963 45.8219C19.8834 46.1762 19.485 46.6726 19.2502 47.2501ZM25.0077 39.4801C24.5026 39.8561 24.1168 40.3698 23.8964 40.9595C23.676 41.5493 23.6305 42.1901 23.7652 42.8051C23.8636 43.4901 24.1164 44.1438 24.5044 44.7168C24.8924 45.2897 25.4056 45.767 26.0052 46.1126C26.5035 45.7269 26.8839 45.2094 27.1035 44.6187C27.323 44.028 27.373 43.3877 27.2477 42.7701C27.1518 42.0866 26.8998 41.4344 26.5114 40.8639C26.123 40.2933 25.6084 39.8199 25.0077 39.4801Z" fill="white"/>
  <path fill-rule="evenodd" clip-rule="evenodd" d="M38.3087 13.125H39.8125V17.7422C39.8125 26.0452 34.7001 33.0219 27.7812 35C20.8624 33.0219 15.75 26.0452 15.75 17.7422L15.7501 13.125H17.254C21.3626 13.125 24.9431 11.5716 27.7811 8.75C30.6193 11.5717 34.2001 13.125 38.3087 13.125ZM37.625 17.7422C37.625 24.9265 33.3639 30.8004 27.7812 32.7082C22.1986 30.8004 17.9375 24.9265 17.9375 17.7422L17.9376 15.2998C21.6512 15.1607 24.9865 13.8873 27.7811 11.673C30.5759 13.8874 33.9113 15.1607 37.625 15.2998V15.3094V15.3212V15.3329V15.3446V15.3564V15.3682V15.38V15.3918V15.4036V15.4154V15.4272V15.439V15.4509V15.4627V15.4746V15.4864V15.4983V15.5102V15.5221V15.534V15.5459V15.5578V15.5697V15.5817V15.5936V15.6055V15.6175V15.6294V15.6414V15.6534V15.6654V15.6773V15.6893V15.7013V15.7133V15.7253V15.7373V15.7493V15.7613V15.7733V15.7854V15.7974V15.8094V15.8214V15.8335V15.8455V15.8576V15.8696V15.8816V15.8937V15.9057V15.9178V15.9299V15.9419V15.954V15.966V15.9781V15.9901V16.0022V16.0143V16.0263V16.0384V16.0504V16.0625V16.0746V16.0866V16.0987V16.1107V16.1228V16.1349V16.1469V16.159V16.171V16.1831V16.1951V16.2071V16.2192V16.2312V16.2433V16.2553V16.2673V16.2793V16.2914V16.3034V16.3154V16.3274V16.3394V16.3514V16.3634V16.3754V16.3874V16.3993V16.4113V16.4233V16.4352V16.4472V16.4591V16.4711V16.483V16.4949V16.5068V16.5188V16.5307V16.5426V16.5544V16.5663V16.5782V16.5901V16.6019V16.6138V16.6256V16.6374V16.6493V16.6611V16.6729V16.6847V16.6964V16.7082V16.72V16.7317V16.7434V16.7552V16.7669V16.7786V16.7903V16.802V16.8136V16.8253V16.8369V16.8486V16.8602V16.8718V16.8834V16.895V16.9065V16.9181V16.9296V16.9412V16.9527V16.9642V16.9756V16.9871V16.9986V17.01V17.0214V17.0328V17.0442V17.0556V17.067V17.0783V17.0896V17.1009V17.1122V17.1235V17.1348V17.146V17.1572V17.1684V17.1796V17.1908V17.202V17.2131V17.2242V17.2353V17.2464V17.2574V17.2685V17.2795V17.2905V17.3015V17.3124V17.3234V17.3343V17.3452V17.3561V17.3669V17.3778V17.3886V17.3994V17.4101V17.4209V17.4316V17.4423V17.453V17.4637V17.4743V17.4849V17.4955V17.5061V17.5166V17.5271V17.5376V17.5481V17.5586V17.569V17.5794V17.5898V17.6001V17.6104V17.6207V17.631V17.6412V17.6515V17.6617V17.6718V17.682V17.6921V17.7022V17.7122V17.7223V17.7323V17.7422ZM34.5154 17.8353C34.9021 17.3713 34.8394 16.6816 34.3754 16.2949C33.9113 15.9082 33.2216 15.9709 32.8349 16.4349L26.553 23.9733L23.8533 20.9829C23.4486 20.5345 22.7569 20.4992 22.3086 20.9039C21.8602 21.3087 21.8248 22.0003 22.2296 22.4487L24.9293 25.4391C25.8212 26.4271 27.3814 26.3962 28.2335 25.3737L34.5154 17.8353Z" fill="white"/>
</svg>
